<svg xmlns="http://www.w3.org/2000/svg" fill="none" viewBox="0 0 1140 1136"><g clip-path="url(#a)"><mask id="b" width="1140" height="1140" x="0" y="-4" maskUnits="userSpaceOnUse" style="mask-type:luminance"><path fill="#fff" d="M1140-4H0v1140h1140V-4Z"/></mask><g mask="url(#b)"><path fill="#009CDE" d="M1140-4H0v1140h1140V-4Z"/><path fill="#0550B9" d="M704 1031V814H229v217h475Zm-366 217v-217h-584v217h584Z"/><path stroke="#FFC423" stroke-width="20" d="M694 1054.5C694 927.08 592.03 824 466.5 824S239 927.08 239 1054.5 340.97 1285 466.5 1285 694 1181.92 694 1054.5Z"/><path stroke="#FFC423" stroke-width="20" d="M610 1054.5c0-80.48-64.37-145.5-143.5-145.5S323 974.02 323 1054.5 387.37 1200 466.5 1200 610 1134.98 610 1054.5Z"/><path fill="#12285F" d="M704 494V-68H402v562h302Z"/><mask id="c" width="302" height="382" x="402" y="112" maskUnits="userSpaceOnUse" style="mask-type:luminance"><path fill="#fff" d="M704 494V112H402v382h302Z"/></mask><g mask="url(#c)" opacity=".2"><mask id="d" width="394" height="787" x="397" y="-293" maskUnits="userSpaceOnUse" style="mask-type:luminance"><path fill="#fff" d="M791 494v-786.17H397.97V494H791Z" opacity=".2"/></mask><g fill="#E4E4E4" mask="url(#d)" opacity=".65"><path d="M413.71 217.76v-12l-.08.07c4.01-.02 8-.04 12.01-.08-.03 8-4.02 11.99-11.99 11.93l.08.06-.02.02Z"/><path d="M401.72 205.83c.38-7.66 4.38-11.64 12-11.93l-.07-.06v12.01l.08-.08-11.99.06h-.02Zm11.99 23.8-11.99.06c.37-7.66 4.37-11.64 12-11.93l-.07-.06v12.01l.08-.08h-.02Z"/><path d="M413.71 241.62v-12l-.08.07 12.01-.06c-.03 8-4.02 11.98-11.99 11.93l.06.06Z"/><path d="m413.71 253.47-11.99.06c.37-7.66 4.37-11.64 12-11.93l-.07-.06v12.01l.08-.08h-.02Z"/><path d="M413.71 265.48v-12l-.08.07 12.01-.06c-.03 8-4.02 11.98-11.99 11.93l.06.06Z"/><path d="m413.71 277.33-11.99.06c.37-7.66 4.37-11.64 12-11.93l-.07-.06v12.01l.08-.08h-.02Z"/><path d="M413.71 289.34v-12l-.08.07 12.01-.06c-.03 8-4.02 11.98-11.99 11.93l.06.06Z"/><path d="m413.71 301.2-11.99.05c.37-7.66 4.37-11.64 12-11.93l-.07-.06v12.01l.08-.08h-.02Z"/><path d="M413.71 313.2v-12l-.08.07 12.01-.06c-.03 8-4.02 11.98-11.99 11.93l.06.06Z"/><path d="m413.71 325.05-11.99.06c.37-7.66 4.37-11.64 12-11.93l-.07-.06v12.01l.08-.08h-.02Z"/><path d="M413.71 337.06v-12l-.08.07 12.01-.06c-.03 8-4.02 11.99-11.99 11.93l.06.06Z"/><path d="m413.71 348.91-11.99.06c.37-7.66 4.37-11.64 12-11.93l-.07-.06V349l.08-.08h-.02Z"/><path d="M413.71 360.92v-12l-.08.07 12.01-.06c-.03 8.01-4.02 11.99-11.99 11.93l.06.06Z"/><path d="m413.71 372.77-11.99.06c.37-7.66 4.37-11.64 12-11.93l-.07-.06v12.01l.08-.08h-.02Z"/><path d="M413.71 384.78v-12l-.08.07 12.01-.06c-.03 8-4.02 11.99-11.99 11.93l.06.06Z"/><path d="m413.71 396.63-11.99.06c.37-7.66 4.37-11.64 12-11.93l-.07-.06v12.01l.08-.08h-.02Z"/><path d="M413.7 408.64v-12l-.07.07 12-.06c-.02 8.01-4.01 11.99-11.98 11.94l.06.05Z"/><path d="m413.71 420.5-11.99.05c.37-7.66 4.37-11.64 12-11.93l-.07-.06v12.01l.08-.07h-.02Z"/><path d="M413.7 432.5v-12l-.07.07 12-.06c-.02 8.01-4.01 11.99-11.98 11.93l.06.06Z"/><path d="M413.71 444.36c-3.99.02-8 .03-11.99.06.37-7.67 4.37-11.65 12-11.94l-.07-.05v12l.08-.07h-.02Z"/><path d="M413.7 456.36v-12l-.07.07 12-.06c-.02 8.01-4.01 11.99-11.98 11.94l.06.05Z"/><path d="M413.71 468.21c-3.99.03-8 .05-11.99.06.37-7.66 4.37-11.64 12-11.93l-.07-.05v12l.08-.08h-.02Zm-.01-274.31v-12l-.09.07c4.01-.02 8-.04 12.01-.08-.02 8-4.02 11.99-11.99 11.93l.06.06v.02Z"/><path d="M401.72 181.97c.38-7.67 4.38-11.64 12-11.93l-.07-.06v12l.08-.07-11.99.06h-.02Z"/><path d="M413.7 170.06v-12l-.09.07c4.01-.02 8-.04 12.01-.08-.02 8-4.02 11.98-11.99 11.93l.06.06v.02Z"/><path d="M401.72 158.11c.38-7.67 4.38-11.64 12-11.93l-.07-.06v12.01l.08-.08-11.99.06h-.02Z"/><path d="M413.7 146.2v-12.01l-.09.08c4.01-.02 8-.04 12.01-.08-.02 8-4.02 11.98-11.99 11.93l.06.06v.02Z"/><path d="M401.72 134.25c.38-7.67 4.38-11.64 12-11.93l-.07-.06v12l.08-.07-11.99.06h-.02Z"/><path d="M413.7 122.34v-12.01l-.09.08c4.01-.02 8-.04 12.01-.08-.02 8-4.02 11.98-11.99 11.93l.06.06v.02Zm0 381.72v-12l-.07.07 12-.05c-.02 8-4.01 11.98-11.98 11.93l.06.06Z"/><path d="M401.72 492.14c.38-7.67 4.38-11.65 12-11.94l-.07-.05v12l.08-.07-11.99.06h-.02Z"/><path d="M413.7 480.2v-12l-.07.07 12-.06c-.02 8.01-4.01 11.99-11.98 11.94l.06.05Zm23.87-262.44v-12l-.08.07c4-.02 8-.04 12-.08-.02 8-4.02 11.99-11.98 11.93l.08.06-.02.02Zm0 11.87-12 .06c.38-7.66 4.37-11.64 12-11.93l-.06-.06v12.01l.08-.08h-.02Z"/><path d="M425.58 205.83c.38-7.66 4.38-11.64 11.99-11.93l-.06-.06v12.01l.08-.08-12 .06h-.01Z"/><path d="M437.55 193.9v-12l-.08.07c4-.02 8-.04 12-.08-.02 8-4.02 11.99-11.98 11.93l.06.06v.02Z"/><path d="M425.58 181.97c.38-7.67 4.38-11.64 11.99-11.93l-.06-.06v12l.08-.07-12 .06h-.01Zm11.99 59.65v-12l-.08.07 12-.06c-.02 8-4.02 11.98-11.98 11.93l.06.06Z"/><path d="m437.57 253.47-12 .06c.38-7.66 4.37-11.64 12-11.93l-.06-.06v12.01l.08-.08h-.02Z"/><path d="M437.57 265.48v-12l-.08.07 12-.06c-.02 8-4.02 11.98-11.98 11.93l.06.06Z"/><path d="m437.57 277.33-12 .06c.38-7.66 4.37-11.64 12-11.93l-.06-.06v12.01l.08-.08h-.02Z"/><path d="M437.57 289.34v-12l-.08.07 12-.06c-.02 8-4.02 11.98-11.98 11.93l.06.06Z"/><path d="m437.57 301.2-12 .05c.38-7.66 4.37-11.64 12-11.93l-.06-.06v12.01l.08-.08h-.02Z"/><path d="M437.57 313.2v-12l-.08.07 12-.06c-.02 8-4.02 11.98-11.98 11.93l.06.06Z"/><path d="m437.57 325.05-12 .06c.38-7.66 4.37-11.64 12-11.93l-.06-.06v12.01l.08-.08h-.02Z"/><path d="M437.57 337.06v-12l-.08.07 12-.06c-.02 8-4.02 11.99-11.98 11.93l.06.06Z"/><path d="m437.57 348.91-12 .06c.38-7.66 4.37-11.64 12-11.93l-.06-.06V349l.08-.08h-.02Z"/><path d="M437.57 360.92v-12l-.08.07 12-.06c-.02 8.01-4.02 11.99-11.98 11.93l.06.06Z"/><path d="m437.57 372.77-12 .06c.38-7.66 4.37-11.64 12-11.93l-.06-.06v12.01l.08-.08h-.02Z"/><path d="M437.57 384.78v-12l-.08.07 12-.06c-.02 8-4.02 11.99-11.98 11.93l.06.06Z"/><path d="m437.57 396.63-12 .06c.38-7.66 4.37-11.64 12-11.93l-.06-.06v12.01l.08-.08h-.02Z"/><path d="M437.57 408.64v-12l-.08.07 12-.06c-.02 8.01-4.02 11.99-11.98 11.94l.06.05Z"/><path d="m437.57 420.5-12 .05c.38-7.66 4.37-11.64 12-11.93l-.06-.06v12.01l.08-.07h-.02Z"/><path d="M437.57 432.5v-12l-.08.07 12-.06c-.02 8.01-4.02 11.99-11.98 11.93l.06.06Z"/><path d="m437.57 444.36-12 .06c.38-7.67 4.37-11.65 12-11.94l-.06-.05v12l.08-.07h-.02Z"/><path d="M437.57 456.36v-12l-.08.07 12-.06c-.02 8.01-4.02 11.99-11.98 11.94l.06.05Z"/><path d="m437.57 468.21-12 .06c.38-7.66 4.37-11.64 12-11.93l-.06-.05v12l.08-.08h-.02Zm-.02-298.15v-12l-.08.07c4-.02 8-.04 12-.08-.02 8-4.02 11.98-11.98 11.93l.06.06v.02Z"/><path d="M425.58 158.11c.38-7.67 4.38-11.64 11.99-11.93l-.06-.06v12.01l.08-.08-12 .06h-.01Z"/><path d="M437.55 146.2v-12.01l-.08.08c4-.02 8-.04 12-.08-.02 8-4.02 11.98-11.98 11.93l.06.06v.02Z"/><path d="M425.58 134.25c.38-7.67 4.38-11.64 11.99-11.93l-.06-.06v12l.08-.07-12 .06h-.01Z"/><path d="M437.55 122.34v-12.01l-.08.08c4-.02 8-.04 12-.08-.02 8-4.02 11.98-11.98 11.93l.06.06v.02Zm0 381.72v-12l-.08.07 12-.05c-.02 8-4.02 11.98-11.98 11.93l.06.06Z"/><path d="M425.58 492.14c.38-7.67 4.38-11.65 11.99-11.94l-.06-.05v12l.08-.07-12 .06h-.01Z"/><path d="M437.55 480.2v-12l-.08.07 12-.06c-.02 8.01-4.02 11.99-11.98 11.94l.06.05Zm23.85-262.44v-12l-.07.07c4-.02 8-.04 12-.08-.02 8-4.02 11.99-11.98 11.93l.07.06-.02.02Z"/><path d="m461.43 229.63-12 .06c.38-7.66 4.37-11.64 12-11.93l-.06-.06v12.01l.07-.08h-.01Zm-12.01-23.8c.38-7.66 4.37-11.64 11.98-11.93l-.05-.06v12.01l.07-.08-11.98.06h-.02Z"/><path d="M461.4 193.9v-12l-.07.07c4-.02 8-.04 12-.08-.02 8-4.02 11.99-11.98 11.93l.05.06v.02Z"/><path d="M449.42 181.97c.38-7.67 4.37-11.64 11.98-11.93l-.05-.06v12l.07-.07-11.98.06h-.02Z"/><path d="M461.4 170.06v-12l-.07.07c4-.02 8-.04 12-.08-.02 8-4.02 11.98-11.98 11.93l.05.06v.02Z"/><path d="M449.42 158.11c.38-7.67 4.37-11.64 11.98-11.93l-.05-.06v12.01l.07-.08-11.98.06h-.02Zm11.98 83.51v-12l-.07.07 12-.06c-.02 8-4.02 11.98-11.98 11.93l.05.06Z"/><path d="m461.43 253.47-12 .06c.38-7.66 4.37-11.64 12-11.93l-.06-.06v12.01l.07-.08h-.01Z"/><path d="M461.4 265.48v-12l-.07.07 12-.06c-.02 8-4.02 11.98-11.98 11.93l.05.06Z"/><path d="m461.43 277.33-12 .06c.38-7.66 4.37-11.64 12-11.93l-.06-.06v12.01l.07-.08h-.01Z"/><path d="M461.4 289.34v-12l-.07.07 12-.06c-.02 8-4.02 11.98-11.98 11.93l.05.06Z"/><path d="m461.43 301.2-12 .05c.38-7.66 4.37-11.64 12-11.93l-.06-.06v12.01l.07-.08h-.01Z"/><path d="M461.4 313.2v-12l-.07.07 12-.06c-.02 8-4.02 11.98-11.98 11.93l.05.06Z"/><path d="m461.43 325.05-12 .06c.38-7.66 4.37-11.64 12-11.93l-.06-.06v12.01l.07-.08h-.01Z"/><path d="M461.4 337.06v-12l-.07.07 12-.06c-.02 8-4.02 11.99-11.98 11.93l.05.06Z"/><path d="m461.43 348.91-12 .06c.38-7.66 4.37-11.64 12-11.93l-.06-.06V349l.07-.08h-.01Z"/><path d="M461.42 360.92v-12l-.08.07 12.01-.06c-.03 8.01-4.02 11.99-11.99 11.93l.06.06Z"/><path d="m461.43 372.77-12 .06c.38-7.66 4.37-11.64 12-11.93l-.06-.06v12.01l.07-.08h-.01Z"/><path d="M461.42 384.78v-12l-.08.07 12.01-.06c-.03 8-4.02 11.99-11.99 11.93l.06.06Z"/><path d="m461.43 396.63-12 .06c.38-7.66 4.37-11.64 12-11.93l-.06-.06v12.01l.07-.08h-.01Z"/><path d="M461.42 408.64v-12l-.08.07 12.01-.06c-.03 8.01-4.02 11.99-11.99 11.94l.06.05Z"/><path d="m461.43 420.5-12 .05c.38-7.66 4.37-11.64 12-11.93l-.06-.06v12.01l.07-.07h-.01Z"/><path d="M461.42 432.5v-12l-.08.07 12.01-.06c-.03 8.01-4.02 11.99-11.99 11.93l.06.06Z"/><path d="m461.43 444.36-12 .06c.38-7.67 4.37-11.65 12-11.94l-.06-.05v12l.07-.07h-.01Z"/><path d="M461.42 456.36v-12l-.08.07 12.01-.06c-.03 8.01-4.02 11.99-11.99 11.94l.06.05Z"/><path d="m461.43 468.21-12 .06c.38-7.66 4.37-11.64 12-11.93l-.06-.05v12l.07-.08h-.01Zm-.03-322.01v-12.01l-.07.08c4-.02 8-.04 12-.08-.02 8-4.02 11.98-11.98 11.93l.05.06v.02Z"/><path d="M449.42 134.25c.38-7.67 4.37-11.64 11.98-11.93l-.05-.06v12l.07-.07-11.98.06h-.02Z"/><path d="M461.4 122.34v-12.01l-.07.08c4-.02 8-.04 12-.08-.02 8-4.02 11.98-11.98 11.93l.05.06v.02Zm0 381.72v-12l-.07.07 12-.05c-.02 8-4.02 11.98-11.98 11.93l.05.06Z"/><path d="M449.42 492.14c.38-7.67 4.37-11.65 11.98-11.94l-.06-.05v12l.08-.07-11.99.06h-.01Z"/><path d="M461.4 480.2v-12l-.07.07 12-.06c-.02 8.01-4.02 11.99-11.98 11.94l.05.05Zm23.86-262.44v-12l-.08.07c4.01-.02 8-.04 12.01-.08-.02 8-4.02 11.99-11.99 11.93l.08.06-.02.02Z"/><path d="m485.28 229.63-11.99.06c.37-7.66 4.36-11.64 11.99-11.93l-.06-.06v12.01l.08-.08h-.02Zm-12.01-23.8c.38-7.66 4.38-11.64 12-11.93l-.07-.06v12.01l.08-.08-11.99.06h-.02Z"/><path d="M485.26 193.9v-12l-.08.07c4.01-.02 8-.04 12.01-.08-.02 8-4.02 11.99-11.99 11.93l.06.06v.02Z"/><path d="M473.27 181.97c.38-7.67 4.38-11.64 12-11.93l-.07-.06v12l.08-.07-11.99.06h-.02Z"/><path d="M485.26 170.06v-12l-.08.07c4.01-.02 8-.04 12.01-.08-.02 8-4.02 11.98-11.99 11.93l.06.06v.02Z"/><path d="M473.27 158.11c.38-7.67 4.38-11.64 12-11.93l-.07-.06v12.01l.08-.08-11.99.06h-.02Z"/><path d="M485.26 146.2v-12.01l-.08.08c4.01-.02 8-.04 12.01-.08-.02 8-4.02 11.98-11.99 11.93l.06.06v.02Z"/><path d="M473.27 134.25c.38-7.67 4.38-11.64 12-11.93l-.07-.06v12l.08-.07-11.99.06h-.02Zm11.99 107.37v-12l-.08.07 12.01-.06c-.02 8-4.02 11.98-11.99 11.93l.06.06Z"/><path d="m485.28 253.47-11.99.06c.37-7.66 4.36-11.64 11.99-11.93l-.06-.06v12.01l.08-.08h-.02Z"/><path d="M485.26 265.48v-12l-.08.07 12.01-.06c-.02 8-4.02 11.98-11.99 11.93l.06.06Z"/><path d="m485.28 277.33-11.99.06c.37-7.66 4.36-11.64 11.99-11.93l-.06-.06v12.01l.08-.08h-.02Z"/><path d="M485.26 289.34v-12l-.08.07 12.01-.06c-.02 8-4.02 11.98-11.99 11.93l.06.06Z"/><path d="M485.28 301.2c-3.99.01-8 .03-11.99.07.37-7.66 4.36-11.64 11.99-11.93l-.06-.06v12.01l.08-.08-.02-.02Z"/><path d="M485.26 313.2v-12l-.08.07 12.01-.06c-.02 8-4.02 11.98-11.99 11.93l.06.06Z"/><path d="m485.28 325.05-11.99.06c.37-7.66 4.36-11.64 11.99-11.93l-.06-.06v12.01l.08-.08h-.02Z"/><path d="M485.26 337.06v-12l-.08.07 12.01-.06c-.02 8-4.02 11.99-11.99 11.93l.06.06Z"/><path d="m485.28 348.91-11.99.06c.37-7.66 4.36-11.64 11.99-11.93l-.06-.06V349l.08-.08h-.02Z"/><path d="M485.26 360.92v-12l-.08.07 12.01-.06c-.02 8.01-4.02 11.99-11.99 11.93l.06.06Z"/><path d="m485.28 372.77-11.99.06c.37-7.66 4.36-11.64 11.99-11.93l-.06-.06v12.01l.08-.08h-.02Z"/><path d="M485.26 384.78v-12l-.08.07 12.01-.06c-.02 8-4.02 11.99-11.99 11.93l.06.06Z"/><path d="m485.28 396.63-11.99.06c.37-7.66 4.36-11.64 11.99-11.93l-.06-.06v12.01l.08-.08h-.02Z"/><path d="M485.26 408.64v-12l-.08.07 12.01-.06c-.02 8.01-4.02 11.99-11.99 11.94l.06.05Z"/><path d="m485.28 420.5-11.99.05c.37-7.66 4.36-11.64 11.99-11.93l-.06-.06v12.01l.08-.07h-.02Z"/><path d="M485.26 432.5v-12l-.08.07 12.01-.06c-.02 8.01-4.02 11.99-11.99 11.93l.06.06Z"/><path d="M485.28 444.36c-3.99.02-8 .03-11.99.06.37-7.67 4.36-11.65 11.99-11.94l-.06-.05v12l.08-.07h-.02Z"/><path d="M485.26 456.36v-12l-.08.07 12.01-.06c-.02 8.01-4.02 11.99-11.99 11.94l.06.05Z"/><path d="M485.28 468.21c-3.99.03-8 .05-11.99.06.37-7.66 4.36-11.64 11.99-11.93l-.06-.05v12l.08-.08h-.02Zm-.1-357.88 12.01.08-.06-.06c.07 8-3.9 11.98-11.93 11.93l.06.06-.08-12.01Zm.08 393.73v-12l-.08.07 12.01-.05c-.02 8-4.02 11.98-11.99 11.93l.06.06Z"/><path d="M473.27 492.14c.38-7.67 4.38-11.65 12-11.94l-.07-.05v12l.08-.07-11.99.06h-.02Z"/><path d="M485.26 480.2v-12l-.08.07 12.01-.06c-.02 8.01-4.02 11.99-11.99 11.94l.06.05ZM699.9 110.4h12l-.06-.05c.07 7.95-3.9 11.95-11.93 11.99l.06-11.99-.08.08v-.02Zm-23.86 0h12l-.05-.05c.06 7.95-3.91 11.95-11.93 11.99l.06-11.99-.08.08v-.02Zm-23.86 0h12l-.05-.05c.06 7.95-3.91 11.95-11.93 11.99l.06-11.99-.08.08v-.02Zm-23.85 0h12l-.06-.05c.07 7.95-3.9 11.95-11.92 11.99l.05-11.99-.07.08v-.02Zm-119.27 0h12l-.05-.05c.06 7.95-3.91 11.95-11.93 11.99l.06-11.99-.08.08v-.02Zm95.41 0h12l-.05-.05c.06 7.95-3.91 11.95-11.93 11.99l.06-11.99-.08.08v-.02Zm-71.56 0h12.01l-.06-.05c.07 7.95-3.9 11.95-11.93 11.99l.06-11.99-.08.08v-.02Zm47.72 0h12l-.05-.05c.06 7.95-3.91 11.95-11.93 11.99l.06-11.99-.08.08v-.02Zm-23.86 0h12.01l-.06-.05c.07 7.95-3.9 11.95-11.93 11.99l.06-11.99-.08.08v-.02Zm-47.65 107.36v-12l-.08.07c4-.02 8-.04 12-.08-.02 8-4.01 11.99-11.98 11.93l.08.06-.02.02Z"/><path d="m509.12 229.63-11.99.06c.37-7.66 4.36-11.64 11.99-11.93l-.06-.06v12.01l.08-.08h-.02Zm-11.99-23.8c.38-7.66 4.38-11.64 11.99-11.93l-.06-.06v12.01l.08-.08-12 .06h-.01Z"/><path d="M509.12 193.9v-12l-.08.07c4-.02 8-.04 12-.08-.02 8-4.01 11.99-11.98 11.93l.06.06v.02Z"/><path d="M497.13 181.97c.38-7.67 4.38-11.64 11.99-11.93l-.06-.06v12l.08-.07-12 .06h-.01Z"/><path d="M509.12 170.06v-12l-.08.07c4-.02 8-.04 12-.08-.02 8-4.01 11.98-11.98 11.93l.06.06v.02Z"/><path d="M497.13 158.11c.38-7.67 4.38-11.64 11.99-11.93l-.06-.06v12.01l.08-.08-12 .06h-.01Z"/><path d="m509.04 134.17 12 .08-.05-.06c.06 8-3.91 11.98-11.93 11.93l.06.06-.08-12.01Z"/><path d="M509.12 122.28v12l-11.99-.01c.37-7.61 4.36-11.61 11.99-12Zm0 119.34v-12l-.08.07 12-.06c-.02 8-4.01 11.98-11.98 11.93l.06.06Z"/><path d="m509.12 253.47-11.99.06c.37-7.66 4.36-11.64 11.99-11.93l-.06-.06v12.01l.08-.08h-.02Z"/><path d="M509.12 265.48v-12l-.08.07 12-.06c-.02 8-4.01 11.98-11.98 11.93l.06.06Z"/><path d="m509.12 277.33-11.99.06c.37-7.66 4.36-11.64 11.99-11.93l-.06-.06v12.01l.08-.08h-.02Z"/><path d="M509.12 289.34v-12l-.08.07 12-.06c-.02 8-4.01 11.98-11.98 11.93l.06.06Z"/><path d="m509.12 301.2-11.99.05c.37-7.66 4.36-11.64 11.99-11.93l-.06-.06v12.01l.08-.08h-.02Z"/><path d="M509.12 313.2v-12l-.08.07 12-.06c-.02 8-4.01 11.98-11.98 11.93l.06.06Z"/><path d="m509.12 325.05-11.99.06c.37-7.66 4.36-11.64 11.99-11.93l-.06-.06v12.01l.08-.08h-.02Z"/><path d="M509.12 337.06v-12l-.08.07 12-.06c-.02 8-4.01 11.99-11.98 11.93l.06.06Z"/><path d="m509.12 348.91-11.99.06c.37-7.66 4.36-11.64 11.99-11.93l-.06-.06V349l.08-.08h-.02Z"/><path d="M509.12 360.92v-12l-.08.07 12-.06c-.02 8.01-4.01 11.99-11.98 11.93l.06.06Z"/><path d="m509.12 372.77-11.99.06c.37-7.66 4.36-11.64 11.99-11.93l-.06-.06v12.01l.08-.08h-.02Z"/><path d="M509.12 384.78v-12l-.08.07 12-.06c-.02 8-4.01 11.99-11.98 11.93l.06.06Z"/><path d="m509.12 396.63-11.99.06c.37-7.66 4.36-11.64 11.99-11.93l-.06-.06v12.01l.08-.08h-.02Z"/><path d="M509.12 408.64v-12l-.08.07 12-.06c-.02 8.01-4.01 11.99-11.98 11.94l.06.05Z"/><path d="m509.12 420.5-11.99.05c.37-7.66 4.36-11.64 11.99-11.93l-.06-.06v12.01l.08-.07h-.02Z"/><path d="M509.12 432.5v-12l-.08.07 12-.06c-.02 8.01-4.01 11.99-11.98 11.93l.06.06Z"/><path d="M509.12 444.36c-4 .02-8 .03-11.99.06.37-7.67 4.36-11.65 11.99-11.94l-.06-.05v12l.08-.07h-.02Z"/><path d="M509.12 456.36v-12l-.08.07 12-.06c-.02 8.01-4.01 11.99-11.98 11.94l.06.05Z"/><path d="m509.12 468.21-11.99.06c.37-7.66 4.36-11.64 11.99-11.93l-.06-.05v12l.08-.08h-.02Zm0 35.85v-12l-.08.07 12-.05c-.02 8-4.01 11.98-11.98 11.93l.06.06Z"/><path d="M497.13 492.14c.38-7.67 4.38-11.65 11.99-11.94l-.06-.05v12l.08-.07-12 .06h-.01Z"/><path d="M509.12 480.2v-12l-.08.07 12-.06c-.02 8.01-4.01 11.99-11.98 11.94l.06.05Zm202.76-346c-.04 8.02-4.03 12-11.99 11.94l.06.06v-12.01l-.08.08 12-.06h.01Z"/><path d="M688.04 134.27c.28-7.61 4.25-11.61 11.93-12l-.06 12 .08-.08h-12l.05.06v.02Zm23.84 23.8c-.04 8-4.03 11.98-11.99 11.93l.06.06v-12l-.08.07 12-.06h.01Z"/><path d="M699.9 146.12v12.01l.08-.08c-4 .02-8 .04-12 .08.38-7.66 4.37-11.64 12-11.93l-.06-.06-.02-.02Zm11.98 35.79c-.04 8-4.03 11.99-11.99 11.93l.06.06v-12l-.08.07 12-.06h.01Z"/><path d="M699.9 169.98v12l.08-.07c-4 .02-8 .04-12 .08.38-7.67 4.37-11.64 12-11.93l-.06-.06-.02-.02Zm11.98 35.79c-.04 8-4.03 11.98-11.99 11.93l.06.06v-12l-.08.07 12-.06h.01Z"/><path d="M699.9 193.84v12.01l.08-.08-12 .08c.38-7.66 4.37-11.64 12-11.93l-.06-.06-.02-.02Zm11.98 35.79c-.04 8-4.03 11.98-11.99 11.93l.06.06v-12l-.08.07 12-.06h.01Z"/><path d="M699.9 217.7v12.01l.08-.08-12 .08c.38-7.67 4.37-11.64 12-11.93l-.06-.06-.02-.02Zm11.98 35.79c-.04 8-4.03 11.98-11.99 11.93l.06.06v-12l-.08.07 12-.06h.01Z"/><path d="M699.9 241.56v12.01l.07-.08-11.99.08c.37-7.66 4.37-11.64 12-11.93l-.07-.06-.02-.02Zm11.98 35.79c-.04 8-4.03 11.98-11.99 11.93l.06.06v-12l-.08.07 12-.06h.01Z"/><path d="M699.9 265.42v12.01l.07-.08c-3.99.02-8 .04-11.99.08.37-7.67 4.37-11.64 12-11.93l-.07-.06-.02-.02Zm11.98 35.79c-.04 8-4.03 11.98-11.99 11.93l.06.06v-12l-.08.07 12-.06h.01Z"/><path d="M699.9 289.28v12.01l.07-.08-11.99.08c.37-7.67 4.37-11.64 12-11.93l-.07-.06-.02-.02Zm11.98 35.79c-.04 8-4.03 11.99-11.99 11.93l.06.06v-12l-.08.07 12-.06h.01Z"/><path d="M699.9 313.14v12.01l.07-.08-11.99.08c.37-7.66 4.37-11.64 12-11.93l-.07-.06-.02-.02Zm11.98 35.79c-.04 8.01-4.03 11.99-11.99 11.93l.06.06v-12l-.08.07 12-.06h.01Z"/><path d="M699.9 337v12.01l.08-.08-12 .08c.38-7.66 4.37-11.64 12-11.93l-.06-.06-.02-.02Zm11.98 35.8c-.04 8-4.03 11.98-11.99 11.92l.06.06v-12l-.08.07 12-.06h.01Z"/><path d="M699.9 360.84v12.01l.07-.08c-3.99.02-8 .04-11.99.08.37-7.66 4.37-11.64 12-11.93l-.07-.06-.02-.02Zm11.98 35.81c-.04 8.01-4.03 11.99-11.99 11.94l.06.05v-12l-.08.07 12-.06h.01Z"/><path d="M699.9 384.7v12.01l.07-.08-11.99.08c.37-7.66 4.37-11.64 12-11.93l-.07-.06-.02-.02Zm11.98 35.81c-.04 8.01-4.03 11.99-11.99 11.93l.06.06v-12l-.08.07 12-.06h.01Z"/><path d="M699.9 408.56v12.01l.07-.07-11.99.07c.37-7.66 4.37-11.64 12-11.93l-.07-.06-.02-.02Zm11.98 35.8c-.04 8-4.03 11.98-11.99 11.93l.06.06v-12.01l-.08.08 12-.06h.01Z"/><path d="M699.9 432.43v12l.07-.07-11.99.07c.37-7.66 4.37-11.64 12-11.93l-.07-.06-.02-.01Zm11.98 35.78c-.04 8.01-4.03 11.99-11.99 11.94l.06.05v-12l-.08.07 12-.06h.01Z"/><path d="M699.9 456.29v12l.07-.08-11.99.08c.37-7.66 4.37-11.64 12-11.93l-.07-.06-.02-.01Zm11.98 35.79c-.04 8-4.03 11.98-11.99 11.93l.06.06v-12.01l-.08.07 12-.05h.01Z"/><path d="M699.9 480.15v12l.07-.07-11.99.07c.37-7.66 4.37-11.64 12-11.92l-.07-.06-.02-.02Zm-23.86-345.88h12l-.05-.06c.06 7.95-3.91 11.95-11.93 11.99l.06-12-.08.09v-.02Z"/><path d="M664.19 134.27c.27-7.61 4.25-11.61 11.93-12l-.06 12 .08-.08h-12.01l.06.06v.02Zm-12.01 0h12l-.05-.06c.06 7.95-3.91 11.95-11.93 11.99l.06-12-.08.09v-.02Z"/><path d="M640.33 134.27c.28-7.61 4.25-11.61 11.93-12l-.06 12 .08-.08h-12l.05.06v.02Zm-12 0h12l-.06-.06c.07 7.95-3.9 11.95-11.92 11.99l.05-12-.07.09v-.02Z"/><path d="M616.47 134.27c.28-7.61 4.25-11.61 11.93-12l-.06 12 .08-.08h-12l.05.06v.02Zm-12 0h12l-.06-.06c.07 7.95-3.9 11.95-11.92 11.99l.05-12-.07.09v-.02Z"/><path d="M592.62 134.27c.27-7.61 4.25-11.61 11.93-12l-.06 12 .08-.08h-12.01l.06.06v.02Zm-59.64-11.99-.06 11.99.08-.08h-12.01l.06.08c.27-7.61 4.25-11.61 11.93-12Z"/><path d="M580.63 134.27h12l-.05-.06c.06 7.95-3.91 11.95-11.93 11.99l.06-12-.08.09v-.02Zm-11.87 0c.28-7.61 4.25-11.61 11.93-12l-.06 12 .08-.08h-12l.05.06v.02Zm-35.85 0h12.01l-.06-.06c.07 7.95-3.9 11.95-11.93 11.99l.06-12-.08.09v-.02Z"/><path d="m556.83 122.28-.06 11.99.08-.08h-12l.05.08c.28-7.61 4.25-11.61 11.93-12Z"/><path d="M556.77 134.27h12.01l-.06-.06c.07 7.95-3.9 11.95-11.93 11.99l.06-12-.08.09v-.02Zm-23.8 83.49v-12l-.08.07c4.01-.02 8-.04 12.01-.08-.02 8-4.02 11.99-11.99 11.93l.08.06-.02.02Z"/><path d="m532.98 229.63-12 .06c.38-7.66 4.37-11.64 12-11.93l-.06-.06v12.01l.08-.08h-.02Zm-11.99-23.8c.38-7.66 4.38-11.64 11.99-11.93l-.06-.06v12.01l.08-.08-12 .06Z"/><path d="M532.97 193.9v-12l-.08.07c4.01-.02 8-.04 12.01-.08-.02 8-4.02 11.99-11.99 11.93l.06.06v.02Z"/><path d="M520.99 181.97c.38-7.67 4.38-11.64 11.99-11.93l-.06-.06v12l.08-.07-12 .06Z"/><path d="m532.9 158.03 12 .08-.06-.06c.07 8-3.9 11.98-11.93 11.93l.06.06-.08-12Z"/><path d="M532.98 146.12v12.01c-3.97 0-7.98 0-12-.02.38-7.61 4.37-11.6 12-11.99Zm0 95.5v-12l-.08.07 12-.06c-.02 8-4.02 11.98-11.98 11.93l.06.06Z"/><path d="m532.98 253.47-12 .06c.38-7.66 4.37-11.64 12-11.93l-.06-.06v12.01l.08-.08h-.02Z"/><path d="M532.98 265.48v-12l-.08.07 12-.06c-.02 8-4.02 11.98-11.98 11.93l.06.06Z"/><path d="m532.98 277.33-12 .06c.38-7.66 4.37-11.64 12-11.93l-.06-.06v12.01l.08-.08h-.02Z"/><path d="M532.98 289.34v-12l-.08.07 12-.06c-.02 8-4.02 11.98-11.98 11.93l.06.06Z"/><path d="m532.98 301.2-12 .05c.38-7.66 4.37-11.64 12-11.93l-.06-.06v12.01l.08-.08h-.02Z"/><path d="M532.98 313.2v-12l-.08.07 12-.06c-.02 8-4.02 11.98-11.98 11.93l.06.06Z"/><path d="m532.98 325.05-12 .06c.38-7.66 4.37-11.64 12-11.93l-.06-.06v12.01l.08-.08h-.02Z"/><path d="M532.98 337.06v-12l-.08.07 12-.06c-.02 8-4.02 11.99-11.98 11.93l.06.06Z"/><path d="m532.98 348.91-12 .06c.38-7.66 4.37-11.64 12-11.93l-.06-.06V349l.08-.08h-.02Z"/><path d="M532.98 360.92v-12l-.08.07 12-.06c-.02 8.01-4.02 11.99-11.98 11.93l.06.06Z"/><path d="m532.98 372.77-12 .06c.38-7.66 4.37-11.64 12-11.93l-.06-.06v12.01l.08-.08h-.02Z"/><path d="M532.98 384.78v-12l-.08.07 12-.06c-.02 8-4.02 11.99-11.98 11.93l.06.06Z"/><path d="m532.98 396.63-12 .06c.38-7.66 4.37-11.64 12-11.93l-.06-.06v12.01l.08-.08h-.02Z"/><path d="M532.97 408.64v-12l-.08.07 12.01-.06c-.02 8.01-4.02 11.99-11.99 11.94l.06.05Z"/><path d="m532.98 420.5-12 .05c.38-7.66 4.37-11.64 12-11.93l-.06-.06v12.01l.08-.07h-.02Z"/><path d="M532.97 432.5v-12l-.08.07 12.01-.06c-.02 8.01-4.02 11.99-11.99 11.93l.06.06Z"/><path d="m532.98 444.36-12 .06c.38-7.67 4.37-11.65 12-11.94l-.06-.05v12l.08-.07h-.02Z"/><path d="M532.97 456.36v-12l-.08.07 12.01-.06c-.02 8.01-4.02 11.99-11.99 11.94l.06.05Z"/><path d="m532.98 468.21-12 .06c.38-7.66 4.37-11.64 12-11.93l-.06-.05v12l.08-.08h-.02Zm-.01 35.85v-12l-.08.07 12.01-.05c-.02 8-4.02 11.98-11.99 11.93l.06.06Z"/><path d="M520.99 492.14c.38-7.67 4.38-11.65 11.99-11.94l-.06-.05v12l.08-.07-12 .06Z"/><path d="M532.97 480.2v-12l-.08.07 12.01-.06c-.02 8.01-4.02 11.99-11.99 11.94l.06.05Zm155.06-322.13c-.04 8-4.04 11.98-12 11.93l.07.06v-12l-.08.07 11.99-.06h.02Z"/><path d="M664.19 158.13c.27-7.61 4.25-11.6 11.93-11.99l-.06 11.99.08-.08h-12.01l.06.06v.02Zm23.84 23.78c-.04 8-4.04 11.99-12 11.93l.07.06v-12l-.08.07 11.99-.06h.02Z"/><path d="M676.04 169.98v12l.08-.07c-4 .02-8 .04-11.99.08.37-7.67 4.36-11.64 11.99-11.93l-.06-.06-.02-.02Zm11.99 35.79c-.04 8-4.04 11.98-12 11.93l.07.06v-12l-.08.07 11.99-.06h.02Z"/><path d="M676.04 193.84v12.01l.08-.08-11.99.08c.37-7.66 4.36-11.64 11.99-11.93l-.06-.06-.02-.02Zm11.99 35.79c-.04 8-4.04 11.98-12 11.93l.07.06v-12l-.08.07 11.99-.06h.02Z"/><path d="M676.04 217.7v12.01l.08-.08-11.99.08c.37-7.67 4.36-11.64 11.99-11.93l-.06-.06-.02-.02Zm11.99 35.79c-.04 8-4.04 11.98-12 11.93l.07.06v-12l-.08.07 11.99-.06h.02Z"/><path d="M676.04 241.56v12.01l.08-.08-11.99.08c.37-7.66 4.36-11.64 11.99-11.93l-.06-.06-.02-.02Zm11.99 35.79c-.04 8-4.04 11.98-12 11.93l.07.06v-12l-.08.07 11.99-.06h.02Z"/><path d="M676.04 265.42v12.01l.08-.08c-4 .02-8 .04-11.99.08.37-7.67 4.36-11.64 11.99-11.93l-.06-.06-.02-.02Zm11.99 35.79c-.04 8-4.04 11.98-12 11.93l.07.06v-12l-.08.07 11.99-.06h.02Z"/><path d="M676.04 289.28v12.01l.08-.08-11.99.08c.37-7.67 4.36-11.64 11.99-11.93l-.06-.06-.02-.02Zm11.99 35.79c-.04 8-4.04 11.99-12 11.93l.07.06v-12l-.08.07 11.99-.06h.02Z"/><path d="M676.04 313.14v12.01l.08-.08-11.99.08c.37-7.66 4.36-11.64 11.99-11.93l-.06-.06-.02-.02Zm11.99 35.79c-.04 8.01-4.04 11.99-12 11.93l.07.06v-12l-.08.07 11.99-.06h.02Z"/><path d="M676.04 337v12.01l.08-.08-11.99.08c.37-7.66 4.36-11.64 11.99-11.93l-.06-.06-.02-.02Zm11.99 35.8c-.04 8-4.04 11.98-12 11.92l.07.06v-12l-.08.07 11.99-.06h.02Z"/><path d="M676.04 360.84v12.01l.08-.08c-4 .02-8 .04-11.99.08.37-7.66 4.36-11.64 11.99-11.93l-.06-.06-.02-.02Zm11.99 35.81c-.04 8.01-4.04 11.99-12 11.94l.07.05v-12l-.08.07 11.99-.06h.02Z"/><path d="M676.04 384.7v12.01l.08-.08-11.99.08c.37-7.66 4.36-11.64 11.99-11.93l-.06-.06-.02-.02Zm11.99 35.81c-.04 8.01-4.04 11.99-12 11.93l.07.06v-12l-.08.07 11.99-.06h.02Z"/><path d="M676.04 408.56v12.01l.08-.07-11.99.07c.37-7.66 4.36-11.64 11.99-11.93l-.06-.06-.02-.02Zm11.99 35.8c-.04 8-4.04 11.98-12 11.93l.07.06v-12.01l-.08.08c3.99-.03 8-.05 11.99-.06h.02Z"/><path d="M676.04 432.43v12l.08-.07-11.99.07c.37-7.66 4.36-11.64 11.99-11.93l-.06-.06-.02-.01Zm11.99 35.78c-.04 8.01-4.04 11.99-12 11.94l.07.05v-12l-.08.07c3.99-.02 8-.03 11.99-.06h.02Z"/><path d="M676.04 456.29v12l.08-.08-11.99.08c.37-7.66 4.36-11.64 11.99-11.93l-.06-.06-.02-.01Zm11.99 35.79c-.04 8-4.04 11.98-12 11.93l.07.06v-12.01l-.08.07 11.99-.05h.02Z"/><path d="M676.04 480.15v12l.08-.07-11.99.07c.37-7.66 4.36-11.64 11.99-11.92l-.06-.06-.02-.02Zm-23.86-322.02h12l-.05-.06c.06 7.95-3.91 11.95-11.93 11.99l.06-11.99-.08.08v-.02Z"/><path d="M640.33 158.13c.28-7.61 4.25-11.6 11.93-11.99l-.06 11.99.08-.08h-12l.05.06v.02Zm-12 0h12l-.06-.06c.07 7.95-3.9 11.95-11.92 11.99l.05-11.99-.07.08v-.02Z"/><path d="M616.47 158.13c.28-7.61 4.25-11.6 11.93-11.99l-.06 11.99.08-.08h-12l.05.06v.02Zm-12 0h12l-.06-.06c.07 7.95-3.9 11.95-11.92 11.99l.05-11.99-.07.08v-.02Z"/><path d="M592.62 158.13c.27-7.61 4.25-11.6 11.93-11.99l-.06 11.99.08-.08h-12.01l.06.06v.02Z"/><path d="M580.63 158.13h12l-.05-.06c.06 7.95-3.91 11.95-11.93 11.99l.06-11.99-.08.08v-.02Zm-11.87 0c.27-7.61 4.25-11.6 11.93-11.99l-.06 11.99.08-.08H568.7l.06.06v.02Z"/><path d="M556.77 158.13h12.01l-.06-.06c.07 7.95-3.9 11.95-11.93 11.99l.06-11.99-.08.08v-.02Zm-11.87 0c.28-7.61 4.25-11.6 11.93-11.99l-.06 11.99.08-.08h-12l.05.06v.02Zm11.93 59.63v-12l-.08.07c4.01-.02 8-.04 12.01-.08-.02 8-4.02 11.99-11.99 11.93l.08.06-.02.02Z"/><path d="m556.83 229.63-11.99.06c.37-7.66 4.37-11.64 12-11.93l-.07-.06v12.01l.08-.08h-.02Zm-11.99-23.8c.38-7.66 4.38-11.64 12-11.93l-.07-.06v12.01l.08-.08-11.99.06h-.02Z"/><path d="m556.75 181.9 12.01.07-.06-.06c.07 8-3.9 11.99-11.93 11.93l.06.06-.08-12Z"/><path d="M556.83 169.98v12l-11.99-.01c.37-7.61 4.37-11.61 12-11.99Zm0 71.64v-12l-.08.07 12.01-.06c-.02 8-4.02 11.98-11.99 11.93l.06.06Z"/><path d="m556.83 253.47-11.99.06c.37-7.66 4.37-11.64 12-11.93l-.07-.06v12.01l.08-.08h-.02Z"/><path d="M556.83 265.48v-12l-.08.07 12.01-.06c-.02 8-4.02 11.98-11.99 11.93l.06.06Z"/><path d="m556.83 277.33-11.99.06c.37-7.66 4.37-11.64 12-11.93l-.07-.06v12.01l.08-.08h-.02Z"/><path d="M556.83 289.34v-12l-.08.07 12.01-.06c-.02 8-4.02 11.98-11.99 11.93l.06.06Z"/><path d="m556.83 301.2-11.99.05c.37-7.66 4.37-11.64 12-11.93l-.07-.06v12.01l.08-.08h-.02Z"/><path d="M556.83 313.2v-12l-.08.07 12.01-.06c-.02 8-4.02 11.98-11.99 11.93l.06.06Z"/><path d="m556.83 325.05-11.99.06c.37-7.66 4.37-11.64 12-11.93l-.07-.06v12.01l.08-.08h-.02Z"/><path d="M556.83 337.06v-12l-.08.07 12.01-.06c-.02 8-4.02 11.99-11.99 11.93l.06.06Z"/><path d="m556.83 348.91-11.99.06c.37-7.66 4.37-11.64 12-11.93l-.07-.06V349l.08-.08h-.02Z"/><path d="M556.83 360.92v-12l-.08.07 12.01-.06c-.02 8.01-4.02 11.99-11.99 11.93l.06.06Z"/><path d="m556.83 372.77-11.99.06c.37-7.66 4.37-11.64 12-11.93l-.07-.06v12.01l.08-.08h-.02Z"/><path d="M556.83 384.78v-12l-.08.07 12.01-.06c-.02 8-4.02 11.99-11.99 11.93l.06.06Z"/><path d="m556.83 396.63-11.99.06c.37-7.66 4.37-11.64 12-11.93l-.07-.06v12.01l.08-.08h-.02Z"/><path d="M556.83 408.64v-12l-.08.07 12.01-.06c-.02 8.01-4.02 11.99-11.99 11.94l.06.05Z"/><path d="m556.83 420.5-11.99.05c.37-7.66 4.37-11.64 12-11.93l-.07-.06v12.01l.08-.07h-.02Z"/><path d="M556.83 432.5v-12l-.08.07 12.01-.06c-.02 8.01-4.02 11.99-11.99 11.93l.06.06Z"/><path d="M556.83 444.36c-3.99.02-8 .03-11.99.06.37-7.67 4.37-11.65 12-11.94l-.07-.05v12l.08-.07h-.02Z"/><path d="M556.83 456.36v-12l-.08.07 12.01-.06c-.02 8.01-4.02 11.99-11.99 11.94l.06.05Z"/><path d="M556.83 468.21c-3.99.03-8 .05-11.99.06.37-7.66 4.37-11.64 12-11.93l-.07-.05v12l.08-.08h-.02Zm0 35.85v-12l-.08.07 12.01-.05c-.02 8-4.02 11.98-11.99 11.93l.06.06Z"/><path d="M544.84 492.14c.38-7.67 4.38-11.65 12-11.94l-.07-.05v12l.08-.07-11.99.06h-.02Z"/><path d="M556.83 480.2v-12l-.08.07 12.01-.06c-.02 8.01-4.02 11.99-11.99 11.94l.06.05Zm107.34-298.29c-.04 8-4.04 11.99-11.99 11.93l.06.06v-12l-.08.07 11.99-.06h.02Z"/><path d="M640.33 181.99c.28-7.61 4.25-11.61 11.93-11.99l-.06 11.99.08-.08h-12l.05.06v.02Zm23.84 23.78c-.04 8-4.04 11.98-11.99 11.93l.06.06v-12l-.08.07 11.99-.06h.02Z"/><path d="M652.2 193.84v12.01l.08-.08-11.99.08c.37-7.66 4.37-11.64 11.99-11.93l-.06-.06-.02-.02Zm11.97 35.79c-.04 8-4.04 11.98-11.99 11.93l.06.06v-12l-.08.07 11.99-.06h.02Z"/><path d="M652.2 217.7v12.01l.08-.08-11.99.08c.37-7.67 4.37-11.64 11.99-11.93l-.06-.06-.02-.02Zm11.97 35.79c-.04 8-4.04 11.98-11.99 11.93l.06.06v-12l-.08.07 11.99-.06h.02Z"/><path d="M652.2 241.56v12.01l.08-.08-11.99.08c.37-7.66 4.37-11.64 11.99-11.93l-.06-.06-.02-.02Zm11.97 35.79c-.04 8-4.04 11.98-11.99 11.93l.06.06v-12l-.08.07 11.99-.06h.02Z"/><path d="M652.2 265.42v12.01l.08-.08c-3.99.02-8 .04-11.99.08.37-7.67 4.37-11.64 11.99-11.93l-.06-.06-.02-.02Zm11.97 35.79c-.04 8-4.04 11.98-11.99 11.93l.06.06v-12l-.08.07 11.99-.06h.02Z"/><path d="M652.2 289.28v12.01l.08-.08-11.99.08c.37-7.67 4.37-11.64 11.99-11.93l-.06-.06-.02-.02Zm11.97 35.79c-.04 8-4.04 11.99-11.99 11.93l.06.06v-12l-.08.07 11.99-.06h.02Z"/><path d="M652.2 313.14v12.01l.08-.08-11.99.08c.37-7.66 4.37-11.64 11.99-11.93l-.06-.06-.02-.02Zm11.97 35.79c-.04 8.01-4.04 11.99-11.99 11.93l.06.06v-12l-.08.07 11.99-.06h.02Z"/><path d="M652.2 337v12.01l.08-.08-11.99.08c.37-7.66 4.37-11.64 11.99-11.93l-.06-.06-.02-.02Zm11.97 35.8c-.04 8-4.04 11.98-11.99 11.92l.06.06v-12l-.08.07 11.99-.06h.02Z"/><path d="M652.2 360.84v12.01l.08-.08c-3.99.02-8 .04-11.99.08.37-7.66 4.37-11.64 11.99-11.93l-.06-.06-.02-.02Zm11.97 35.81c-.04 8.01-4.04 11.99-11.99 11.94l.06.05v-12l-.08.07 11.99-.06h.02Z"/><path d="M652.2 384.7v12.01l.08-.08-11.99.08c.37-7.66 4.37-11.64 11.99-11.93l-.06-.06-.02-.02Zm11.97 35.81c-.04 8.01-4.04 11.99-11.99 11.93l.06.06v-12l-.08.07 11.99-.06h.02Z"/><path d="M652.2 408.56v12.01l.08-.07-11.99.07c.37-7.66 4.37-11.64 11.99-11.93l-.06-.06-.02-.02Zm11.97 35.8c-.04 8-4.04 11.98-11.99 11.93l.06.06v-12.01l-.08.08c3.99-.03 8-.05 11.99-.06h.02Z"/><path d="M652.2 432.43v12l.08-.07-11.99.07c.37-7.66 4.37-11.64 11.99-11.93l-.06-.06-.02-.01Zm11.97 35.78c-.04 8.01-4.04 11.99-11.99 11.94l.06.05v-12l-.08.07c3.99-.02 8-.03 11.99-.06h.02Z"/><path d="M652.2 456.29v12l.08-.08-11.99.08c.37-7.66 4.37-11.64 11.99-11.93l-.06-.06-.02-.01Zm11.97 35.79c-.04 8-4.04 11.98-11.99 11.93l.06.06v-12.01l-.08.07 11.99-.05h.02Z"/><path d="M652.2 480.15v12l.08-.07-11.99.07c.37-7.66 4.37-11.64 11.99-11.92l-.06-.06-.02-.02ZM628.33 182h12l-.06-.07c.07 7.95-3.9 11.95-11.92 12l.05-12-.07.08v-.02Z"/><path d="M616.47 181.99c.28-7.61 4.25-11.61 11.93-11.99l-.06 11.99.08-.08h-12l.05.06v.02Zm-12 .01h12l-.06-.07c.07 7.95-3.9 11.95-11.92 12l.05-12-.07.08v-.02Z"/><path d="M592.62 181.99c.27-7.61 4.25-11.61 11.93-11.99l-.06 11.99.08-.08h-12.01l.06.06v.02Z"/><path d="M580.63 182h12l-.05-.07c.06 7.95-3.91 11.95-11.93 12l.06-12-.08.08v-.02Zm-11.87-.01c.27-7.61 4.25-11.61 11.93-11.99l-.06 11.99.08-.08H568.7l.06.06v.02Zm11.85 23.76 12 .08-.05-.06c.06 8-3.91 11.98-11.93 11.93l.06.06-.08-12Z"/><path d="m580.69 229.63-11.99.06c.37-7.66 4.36-11.64 11.99-11.93l-.06-.06v12.01l.08-.08h-.02Zm0-35.79v12.01c-4 0-7.98 0-11.99-.02.37-7.61 4.36-11.6 11.99-11.99Z"/><path d="M580.69 241.62v-12l-.08.07 12-.06c-.02 8-4.01 11.98-11.98 11.93l.06.06Z"/><path d="m580.7 253.47-12 .06c.37-7.66 4.37-11.64 12-11.93l-.07-.06v12.01l.08-.08h-.02Z"/><path d="M580.69 265.48v-12l-.08.07 12-.06c-.02 8-4.01 11.98-11.98 11.93l.06.06Z"/><path d="m580.7 277.33-12 .06c.37-7.66 4.37-11.64 12-11.93l-.07-.06v12.01l.08-.08h-.02Z"/><path d="M580.69 289.34v-12l-.08.07 12-.06c-.02 8-4.01 11.98-11.98 11.93l.06.06Z"/><path d="m580.7 301.2-12 .05c.37-7.66 4.37-11.64 12-11.93l-.07-.06v12.01l.08-.08h-.02Z"/><path d="M580.69 313.2v-12l-.08.07 12-.06c-.02 8-4.01 11.98-11.98 11.93l.06.06Z"/><path d="m580.7 325.05-12 .06c.37-7.66 4.37-11.64 12-11.93l-.07-.06v12.01l.08-.08h-.02Z"/><path d="M580.69 337.06v-12l-.08.07 12-.06c-.02 8-4.01 11.99-11.98 11.93l.06.06Z"/><path d="m580.7 348.91-12 .06c.37-7.66 4.37-11.64 12-11.93l-.07-.06V349l.08-.08h-.02Z"/><path d="M580.69 360.92v-12l-.08.07 12-.06c-.02 8.01-4.01 11.99-11.98 11.93l.06.06Z"/><path d="m580.7 372.77-12 .06c.37-7.66 4.37-11.64 12-11.93l-.07-.06v12.01l.08-.08h-.02Z"/><path d="M580.69 384.78v-12l-.08.07 12-.06c-.02 8-4.01 11.99-11.98 11.93l.06.06Z"/><path d="m580.7 396.63-12 .06c.37-7.66 4.37-11.64 12-11.93l-.07-.06v12.01l.08-.08h-.02Z"/><path d="M580.69 408.64v-12l-.08.07 12-.06c-.02 8.01-4.01 11.99-11.98 11.94l.06.05Z"/><path d="m580.7 420.5-12 .05c.37-7.66 4.37-11.64 12-11.93l-.07-.06v12.01l.08-.07h-.02Z"/><path d="M580.69 432.5v-12l-.08.07 12-.06c-.02 8.01-4.01 11.99-11.98 11.93l.06.06Z"/><path d="m580.7 444.36-12 .06c.37-7.67 4.37-11.65 12-11.94l-.07-.05v12l.08-.07h-.02Z"/><path d="M580.69 456.36v-12l-.08.07 12-.06c-.02 8.01-4.01 11.99-11.98 11.94l.06.05Z"/><path d="m580.7 468.21-12 .06c.37-7.66 4.37-11.64 12-11.93l-.07-.05v12l.08-.08h-.02Zm-.01 35.85v-12l-.08.07 12-.05c-.02 8-4.01 11.98-11.98 11.93l.06.06Z"/><path d="M568.7 492.14c.38-7.67 4.38-11.65 11.99-11.94l-.06-.05v12l.08-.07-11.99.06h-.02Z"/><path d="M580.69 480.2v-12l-.08.07 12-.06c-.02 8.01-4.01 11.99-11.98 11.94l.06.05Zm59.62-274.43c-.04 8-4.03 11.98-11.98 11.93l.05.06v-12l-.08.07 12-.06h.01Z"/><path d="M616.47 205.85c.28-7.61 4.25-11.6 11.93-11.99l-.06 11.99.08-.08h-12l.05.06v.02Zm23.84 23.78c-.04 8-4.03 11.98-11.98 11.93l.05.06v-12l-.08.07 12-.06h.01Z"/><path d="M628.34 217.7v12.01l.08-.08-11.99.08c.37-7.67 4.37-11.64 12-11.93l-.07-.06-.02-.02Zm11.97 35.79c-.04 8-4.03 11.98-11.98 11.93l.05.06v-12l-.08.07 12-.06h.01Z"/><path d="M628.34 241.56v12.01l.08-.08-11.99.08c.37-7.66 4.37-11.64 12-11.93l-.07-.06-.02-.02Zm11.97 35.79c-.04 8-4.03 11.98-11.98 11.93l.05.06v-12l-.08.07 12-.06h.01Z"/><path d="M628.34 265.42v12.01l.08-.08c-3.99.02-8 .04-11.99.08.37-7.67 4.37-11.64 12-11.93l-.07-.06-.02-.02Zm11.97 35.79c-.04 8-4.03 11.98-11.98 11.93l.05.06v-12l-.08.07 12-.06h.01Z"/><path d="M628.34 289.28v12.01l.08-.08-11.99.08c.37-7.67 4.37-11.64 12-11.93l-.07-.06-.02-.02Zm11.97 35.79c-.04 8-4.03 11.99-11.98 11.93l.05.06v-12l-.08.07 12-.06h.01Z"/><path d="M628.34 313.14v12.01l.08-.08-11.99.08c.37-7.66 4.37-11.64 12-11.93l-.07-.06-.02-.02Zm11.97 35.79c-.04 8.01-4.03 11.99-11.98 11.93l.05.06v-12l-.08.07 12-.06h.01Z"/><path d="M628.34 337v12.01l.08-.08-11.99.08c.37-7.66 4.37-11.64 12-11.93l-.07-.06-.02-.02Zm11.97 35.8c-.04 8-4.03 11.98-11.98 11.92l.05.06v-12l-.08.07 12-.06h.01Z"/><path d="M628.34 360.84v12.01l.08-.08c-3.99.02-8 .04-11.99.08.37-7.66 4.37-11.64 12-11.93l-.07-.06-.02-.02Zm11.97 35.81c-.04 8.01-4.03 11.99-11.98 11.94l.05.05v-12l-.08.07 12-.06h.01Z"/><path d="M628.34 384.7v12.01l.08-.08-11.99.08c.37-7.66 4.37-11.64 12-11.93l-.07-.06-.02-.02Zm11.97 35.81c-.04 8.01-4.03 11.99-11.98 11.93l.05.06v-12l-.08.07 12-.06h.01Z"/><path d="M628.34 408.56v12.01l.08-.07-11.99.07c.37-7.66 4.37-11.64 12-11.93l-.07-.06-.02-.02Zm11.97 35.8c-.04 8-4.03 11.98-11.98 11.93l.05.06v-12.01l-.08.08 12-.06h.01Z"/><path d="M628.34 432.43v12l.08-.07-11.99.07c.37-7.66 4.37-11.64 12-11.93l-.07-.06-.02-.01Zm11.97 35.78c-.04 8.01-4.03 11.99-11.98 11.94l.05.05v-12l-.08.07 12-.06h.01Z"/><path d="M628.34 456.29v12l.08-.08-11.99.08c.37-7.66 4.37-11.64 12-11.93l-.07-.06-.02-.01Zm11.97 35.79c-.04 8-4.03 11.98-11.98 11.93l.05.06v-12.01l-.08.07 12-.05h.01Z"/><path d="M628.34 480.15v12l.08-.07-11.99.07c.37-7.66 4.37-11.64 12-11.92l-.07-.06-.02-.02Zm-23.87-274.3h12l-.06-.06c.07 7.95-3.9 11.95-11.92 11.99l.05-11.99-.07.08v-.02Z"/><path d="M592.62 205.85c.27-7.61 4.25-11.6 11.93-11.99l-.06 11.99.08-.08h-12.01l.06.06v.02Zm11.93 11.85v12.01c-4 0-7.98 0-12-.02.38-7.61 4.37-11.6 12-11.99Z"/><path d="M616.48 229.63c-.04 7.95-4.04 11.95-12 11.99v-12l12 .01Z"/><path d="M604.55 241.56v12.01c-4 0-7.98 0-12-.02.38-7.61 4.37-11.6 12-11.99Z"/><path d="M616.48 253.49c-.04 7.95-4.04 11.95-12 11.99v-12l12 .01Z"/><path d="M604.55 265.42v12.01c-4 0-7.98 0-12-.02.38-7.61 4.37-11.6 12-11.99Z"/><path d="M616.48 277.35c-.04 7.95-4.04 11.95-12 12v-12.02c3.98 0 7.99 0 12 .02Z"/><path d="M604.55 289.28v12.01c-4 0-7.98 0-12-.02.38-7.61 4.37-11.6 12-11.99Z"/><path d="M616.48 301.21c-.04 7.96-4.04 11.95-12 11.99v-12l12 .01Z"/><path d="M604.55 313.14v12.01c-4 0-7.98 0-12-.02.38-7.61 4.37-11.6 12-11.99Z"/><path d="M616.48 325.07c-.04 7.96-4.04 11.95-12 12v-12.02c3.98 0 7.99 0 12 .02Z"/><path d="M604.55 337v12.01c-4 0-7.98 0-12-.02.38-7.61 4.37-11.6 12-11.99Z"/><path d="M616.48 348.93c-.04 7.96-4.04 11.95-12 12V348.9c3.98 0 7.99 0 12 .02Z"/><path d="M604.55 360.86v12.01c-4 0-7.98 0-12-.02.38-7.61 4.37-11.6 12-11.99Z"/><path d="M616.48 372.8c-.04 7.95-4.04 11.94-12 11.98v-12l12 .01Z"/><path d="M604.55 384.72v12.01c-4 0-7.98 0-12-.02.38-7.61 4.37-11.6 12-11.99Z"/><path d="M616.48 396.65c-.04 7.96-4.04 11.95-12 12v-12.01l12 .01Z"/><path d="M604.55 408.58v12.01c-4 0-7.98 0-12-.02.38-7.61 4.37-11.6 12-11.99Z"/><path d="M616.48 420.51c-.04 7.96-4.04 11.95-12 12v-12.02c3.98 0 7.99 0 12 .02Z"/><path d="M604.55 432.43v12l-12-.01c.38-7.62 4.37-11.61 12-12Z"/><path d="M616.47 444.36c-.04 7.95-4.03 11.94-11.99 11.99v-12.01c3.98 0 7.98 0 12 .02Z"/><path d="M604.55 456.29v12c-4 0-7.98 0-12-.02.38-7.6 4.37-11.6 12-11.98Zm11.92 35.79c-.04 7.95-4.03 11.95-11.99 11.99v-12.01c3.98 0 7.98 0 12 .02Z"/><path d="M604.55 480.15v12l-12-.01c.38-7.62 4.37-11.61 12-12Z"/><path d="M616.47 468.21c-.04 7.96-4.03 11.96-11.99 12V468.2l12 .01Z"/></g></g><path fill="#CCBAF4" d="M402 460V161H229v299h173Z"/><path fill="#F46351" d="M402 161v-49H229v49h173Z"/><path fill="#12285F" d="M229 112V-4H-8v116h237Z"/><path fill="#0550B9" d="M229 460V112H-8v348h237Z"/><path fill="#CCEDF9" d="M402 494v-34H191v34h211Z"/><path fill="#F46351" d="M1024 814V494H704v320h320Z"/><path fill="#12285F" d="M1140 814V494h-116v320h116Z"/><path fill="#CCEDF9" d="M706 303v191h434V303H706Z"/><path fill="#CCBAF4" d="M345-79v191h359V-79H345Z"/><path fill="#CCEDF9" d="M229 1031v191h475v-191H229Z"/><mask id="e" width="302" height="320" x="1024" y="494" maskUnits="userSpaceOnUse" style="mask-type:luminance"><path fill="#fff" d="M1326 814V494h-302v320h302Z"/></mask><g mask="url(#e)" opacity=".2"><mask id="f" width="394" height="787" x="1019" y="89" maskUnits="userSpaceOnUse" style="mask-type:luminance"><path fill="#fff" d="M1413 876V89.83h-393.03V876H1413Z" opacity=".2"/></mask><g fill="#E4E4E4" mask="url(#f)" opacity=".65"><path d="M1035.71 599.76v-12l-.08.07c4.01-.02 8-.04 12.01-.08-.03 8-4.02 11.99-11.99 11.93l.08.06-.02.02Z"/><path d="M1023.72 587.83c.38-7.66 4.38-11.64 11.99-11.93l-.06-.06v12.01l.08-.08-11.99.06h-.02Zm11.99 23.8-11.99.06c.37-7.67 4.37-11.64 11.99-11.93l-.06-.06v12.01l.08-.08h-.02Z"/><path d="M1035.71 623.62v-12l-.08.07 12.01-.06c-.03 8-4.02 11.98-11.99 11.93l.06.06Z"/><path d="m1035.71 635.47-11.99.06c.37-7.66 4.37-11.64 11.99-11.93l-.06-.06v12.01l.08-.08h-.02Z"/><path d="M1035.71 647.48v-12l-.08.07 12.01-.06c-.03 8-4.02 11.98-11.99 11.93l.06.06Z"/><path d="m1035.71 659.33-11.99.06c.37-7.66 4.37-11.64 11.99-11.93l-.06-.06v12.01l.08-.08h-.02Z"/><path d="M1035.71 671.34v-12l-.08.07 12.01-.06c-.03 8-4.02 11.98-11.99 11.93l.06.06Z"/><path d="m1035.71 683.2-11.99.05c.37-7.66 4.37-11.64 11.99-11.93l-.06-.06v12.01l.08-.08h-.02Z"/><path d="M1035.71 695.2v-12l-.08.07 12.01-.06c-.03 8-4.02 11.98-11.99 11.93l.06.06Z"/><path d="m1035.71 707.05-11.99.06c.37-7.66 4.37-11.64 11.99-11.93l-.06-.06v12.01l.08-.08h-.02Z"/><path d="M1035.71 719.06v-12l-.08.07 12.01-.06c-.03 8-4.02 11.98-11.99 11.93l.06.06Z"/><path d="m1035.71 730.91-11.99.06c.37-7.66 4.37-11.64 11.99-11.93l-.06-.06V731l.08-.08h-.02Z"/><path d="M1035.71 742.92v-12l-.08.07 12.01-.06c-.03 8.01-4.02 11.99-11.99 11.93l.06.06Z"/><path d="m1035.71 754.77-11.99.06c.37-7.66 4.37-11.64 11.99-11.93l-.06-.06v12.01l.08-.08h-.02Z"/><path d="M1035.71 766.78v-12l-.08.07 12.01-.06c-.03 8-4.02 11.99-11.99 11.93l.06.06Z"/><path d="m1035.71 778.63-11.99.06c.37-7.66 4.37-11.64 11.99-11.93l-.06-.06v12.01l.08-.08h-.02Z"/><path d="M1035.71 790.64v-12l-.08.07 12.01-.06c-.03 8.01-4.03 11.99-11.99 11.94l.06.05Z"/><path d="m1035.71 802.5-11.99.05c.37-7.66 4.37-11.64 11.99-11.93l-.06-.06v12.01l.08-.08h-.02Z"/><path d="M1035.71 814.5v-12l-.08.07 12.01-.06c-.03 8.01-4.03 11.99-11.99 11.93l.06.06Zm-.02-238.6v-12l-.08.07c4.01-.02 8-.04 12.01-.08-.03 8-4.02 11.99-11.99 11.93l.06.06v.02Z"/><path d="M1023.72 563.97c.38-7.67 4.38-11.64 11.99-11.93l-.06-.06v12l.08-.07-11.99.06h-.02Z"/><path d="M1035.69 552.06v-12l-.08.07c4.01-.02 8-.04 12.01-.08-.03 8-4.02 11.98-11.99 11.93l.06.06v.02Z"/><path d="M1023.72 540.11c.38-7.66 4.38-11.64 11.99-11.93l-.06-.06v12.01l.08-.08-11.99.06h-.02Z"/><path d="M1035.69 528.2v-12.01l-.08.08c4.01-.02 8-.04 12.01-.08-.03 8-4.02 11.98-11.99 11.93l.06.06v.02Z"/><path d="M1023.72 516.25c.38-7.67 4.38-11.64 11.99-11.93l-.06-.06v12l.08-.07-11.99.06h-.02Z"/><path d="M1035.69 504.34v-12.01l-.08.08c4.01-.02 8-.04 12.01-.08-.03 8-4.02 11.98-11.99 11.93l.06.06v.02Zm23.88 95.42v-12l-.08.07c4.01-.02 8-.04 12.01-.08-.03 8-4.03 11.99-11.99 11.93l.08.06-.02.02Zm0 11.87-11.99.06c.37-7.67 4.36-11.64 11.99-11.93l-.06-.06v12.01l.08-.08h-.02Z"/><path d="M1047.58 587.83c.38-7.66 4.37-11.64 11.99-11.93l-.06-.06v12.01l.08-.08-11.99.06h-.02Z"/><path d="M1059.55 575.9v-12l-.08.07c4.01-.02 8-.04 12.01-.08-.03 8-4.03 11.99-11.99 11.93l.06.06v.02Z"/><path d="M1047.58 563.97c.38-7.67 4.37-11.64 11.99-11.93l-.06-.06v12l.08-.07-11.99.06h-.02Zm11.99 59.65v-12l-.08.07 12.01-.06c-.03 8-4.03 11.98-11.99 11.93l.06.06Z"/><path d="m1059.57 635.47-11.99.06c.37-7.66 4.36-11.64 11.99-11.93l-.06-.06v12.01l.08-.08h-.02Z"/><path d="M1059.57 647.48v-12l-.08.07 12.01-.06c-.03 8-4.03 11.98-11.99 11.93l.06.06Z"/><path d="m1059.57 659.33-11.99.06c.37-7.66 4.36-11.64 11.99-11.93l-.06-.06v12.01l.08-.08h-.02Z"/><path d="M1059.57 671.34v-12l-.08.07 12.01-.06c-.03 8-4.03 11.98-11.99 11.93l.06.06Z"/><path d="m1059.57 683.2-11.99.05c.37-7.66 4.36-11.64 11.99-11.93l-.06-.06v12.01l.08-.08h-.02Z"/><path d="M1059.57 695.2v-12l-.08.07 12.01-.06c-.03 8-4.03 11.98-11.99 11.93l.06.06Z"/><path d="m1059.57 707.05-11.99.06c.37-7.66 4.36-11.64 11.99-11.93l-.06-.06v12.01l.08-.08h-.02Z"/><path d="M1059.57 719.06v-12l-.08.07 12.01-.06c-.03 8-4.03 11.98-11.99 11.93l.06.06Z"/><path d="m1059.57 730.91-11.99.06c.37-7.66 4.36-11.64 11.99-11.93l-.06-.06V731l.08-.08h-.02Z"/><path d="M1059.57 742.92v-12l-.08.07 12.01-.06c-.03 8.01-4.03 11.99-11.99 11.93l.06.06Z"/><path d="m1059.57 754.77-11.99.06c.37-7.66 4.36-11.64 11.99-11.93l-.06-.06v12.01l.08-.08h-.02Z"/><path d="M1059.57 766.78v-12l-.08.07 12.01-.06c-.03 8-4.03 11.99-11.99 11.93l.06.06Z"/><path d="m1059.57 778.63-11.99.06c.37-7.66 4.36-11.64 11.99-11.93l-.06-.06v12.01l.08-.08h-.02Z"/><path d="M1059.57 790.64v-12l-.08.07 12.01-.06c-.03 8.01-4.03 11.99-11.99 11.94l.06.05Z"/><path d="m1059.57 802.5-11.99.05c.37-7.66 4.36-11.64 11.99-11.93l-.06-.06v12.01l.08-.08h-.02Z"/><path d="M1059.57 814.5v-12l-.08.07 12.01-.06c-.03 8.01-4.03 11.99-11.99 11.93l.06.06Zm-.02-262.44v-12l-.08.07c4.01-.02 8-.04 12.01-.08-.03 8-4.03 11.98-11.99 11.93l.06.06v.02Z"/><path d="M1047.58 540.11c.38-7.66 4.37-11.64 11.99-11.93l-.06-.06v12.01l.08-.08-11.99.06h-.02Z"/><path d="M1059.55 528.2v-12.01l-.08.08c4.01-.02 8-.04 12.01-.08-.03 8-4.03 11.98-11.99 11.93l.06.06v.02Z"/><path d="M1047.58 516.25c.38-7.67 4.37-11.64 11.99-11.93l-.06-.06v12l.08-.07-11.99.06h-.02Z"/><path d="M1059.55 504.34v-12.01l-.08.08c4.01-.02 8-.04 12.01-.08-.03 8-4.03 11.98-11.99 11.93l.06.06v.02Zm23.85 95.42v-12l-.08.07c4.01-.02 8-.04 12.01-.08-.02 8-4.02 11.99-11.99 11.93l.08.06-.02.02Z"/><path d="m1083.43 611.63-11.99.06c.37-7.67 4.36-11.64 11.99-11.93l-.06-.06v12.01l.08-.08h-.02Zm-12.01-23.8c.38-7.66 4.37-11.64 11.99-11.93l-.06-.06v12.01l.08-.08-11.99.06h-.02Z"/><path d="M1083.4 575.9v-12l-.08.07c4.01-.02 8-.04 12.01-.08-.02 8-4.02 11.99-11.99 11.93l.06.06v.02Z"/><path d="M1071.42 563.97c.38-7.67 4.37-11.64 11.99-11.93l-.06-.06v12l.08-.07-11.99.06h-.02Z"/><path d="M1083.4 552.06v-12l-.08.07c4.01-.02 8-.04 12.01-.08-.02 8-4.02 11.98-11.99 11.93l.06.06v.02Z"/><path d="M1071.42 540.11c.38-7.66 4.37-11.64 11.99-11.93l-.06-.06v12.01l.08-.08-11.99.06h-.02Zm11.98 83.51v-12l-.08.07 12.01-.06c-.02 8-4.02 11.98-11.99 11.93l.06.06Z"/><path d="m1083.43 635.47-11.99.06c.37-7.66 4.36-11.64 11.99-11.93l-.06-.06v12.01l.08-.08h-.02Z"/><path d="M1083.4 647.48v-12l-.08.07 12.01-.06c-.02 8-4.02 11.98-11.99 11.93l.06.06Z"/><path d="m1083.43 659.33-11.99.06c.37-7.66 4.36-11.64 11.99-11.93l-.06-.06v12.01l.08-.08h-.02Z"/><path d="M1083.4 671.34v-12l-.08.07 12.01-.06c-.02 8-4.02 11.98-11.99 11.93l.06.06Z"/><path d="m1083.43 683.2-11.99.05c.37-7.66 4.36-11.64 11.99-11.93l-.06-.06v12.01l.08-.08h-.02Z"/><path d="M1083.4 695.2v-12l-.08.07 12.01-.06c-.02 8-4.02 11.98-11.99 11.93l.06.06Z"/><path d="m1083.43 707.05-11.99.06c.37-7.66 4.36-11.64 11.99-11.93l-.06-.06v12.01l.08-.08h-.02Z"/><path d="M1083.4 719.06v-12l-.08.07 12.01-.06c-.02 8-4.02 11.98-11.99 11.93l.06.06Z"/><path d="m1083.43 730.91-11.99.06c.37-7.66 4.36-11.64 11.99-11.93l-.06-.06V731l.08-.08h-.02Z"/><path d="M1083.42 742.92v-12l-.08.07 12.01-.06c-.02 8.01-4.02 11.99-11.99 11.93l.06.06Z"/><path d="m1083.43 754.77-11.99.06c.37-7.66 4.36-11.64 11.99-11.93l-.06-.06v12.01l.08-.08h-.02Z"/><path d="M1083.42 766.78v-12l-.08.07 12.01-.06c-.02 8-4.02 11.99-11.99 11.93l.06.06Z"/><path d="m1083.43 778.63-11.99.06c.37-7.66 4.36-11.64 11.99-11.93l-.06-.06v12.01l.08-.08h-.02Z"/><path d="M1083.42 790.64v-12l-.08.07 12.01-.06c-.02 8.01-4.02 11.99-11.99 11.94l.06.05Z"/><path d="m1083.43 802.5-11.99.05c.37-7.66 4.36-11.64 11.99-11.93l-.06-.06v12.01l.08-.08h-.02Z"/><path d="M1083.42 814.5v-12l-.08.07 12.01-.06c-.02 8.01-4.02 11.99-11.99 11.93l.06.06Zm-.02-286.3v-12.01l-.08.08c4.01-.02 8-.04 12.01-.08-.02 8-4.02 11.98-11.99 11.93l.06.06v.02Z"/><path d="M1071.42 516.25c.38-7.67 4.37-11.64 11.99-11.93l-.06-.06v12l.08-.07-11.99.06h-.02Z"/><path d="M1083.4 504.34v-12.01l-.08.08c4.01-.02 8-.04 12.01-.08-.02 8-4.02 11.98-11.99 11.93l.06.06v.02Zm23.86 95.42v-12l-.08.07c4.01-.02 8-.04 12.01-.08-.02 8-4.02 11.99-11.99 11.93l.08.06-.02.02Z"/><path d="m1107.28 611.63-11.99.06c.37-7.67 4.37-11.64 11.99-11.93l-.06-.06v12.01l.08-.08h-.02Zm-12.01-23.8c.38-7.66 4.38-11.64 11.99-11.93l-.06-.06v12.01l.08-.08-11.99.06h-.02Zm11.99-11.93v-12l-.08.07c4.01-.02 8-.04 12.01-.08-.02 8-4.02 11.99-11.99 11.93l.06.06v.02Z"/><path d="M1095.27 563.97c.38-7.67 4.38-11.64 11.99-11.93l-.06-.06v12l.08-.07-11.99.06h-.02Z"/><path d="M1107.26 552.06v-12l-.08.07c4.01-.02 8-.04 12.01-.08-.02 8-4.02 11.98-11.99 11.93l.06.06v.02Z"/><path d="M1095.27 540.11c.38-7.66 4.38-11.64 11.99-11.93l-.06-.06v12.01l.08-.08-11.99.06h-.02Z"/><path d="M1107.26 528.2v-12.01l-.08.08c4.01-.02 8-.04 12.01-.08-.02 8-4.02 11.98-11.99 11.93l.06.06v.02Z"/><path d="M1095.27 516.25c.38-7.67 4.38-11.64 11.99-11.93l-.06-.06v12l.08-.07-11.99.06h-.02Zm11.99 107.37v-12l-.08.07 12.01-.06c-.02 8-4.02 11.98-11.99 11.93l.06.06Z"/><path d="m1107.28 635.47-11.99.06c.37-7.66 4.37-11.64 11.99-11.93l-.06-.06v12.01l.08-.08h-.02Z"/><path d="M1107.26 647.48v-12l-.08.07 12.01-.06c-.02 8-4.02 11.98-11.99 11.93l.06.06Z"/><path d="m1107.28 659.33-11.99.06c.37-7.66 4.37-11.64 11.99-11.93l-.06-.06v12.01l.08-.08h-.02Z"/><path d="M1107.26 671.34v-12l-.08.07 12.01-.06c-.02 8-4.02 11.98-11.99 11.93l.06.06Z"/><path d="M1107.28 683.2c-3.99.01-8 .03-11.99.07.37-7.66 4.37-11.64 11.99-11.93l-.06-.06v12.01l.08-.08-.02-.02Z"/><path d="M1107.26 695.2v-12l-.08.07 12.01-.06c-.02 8-4.02 11.98-11.99 11.93l.06.06Z"/><path d="m1107.28 707.05-11.99.06c.37-7.66 4.37-11.64 11.99-11.93l-.06-.06v12.01l.08-.08h-.02Z"/><path d="M1107.26 719.06v-12l-.08.07 12.01-.06c-.02 8-4.02 11.98-11.99 11.93l.06.06Z"/><path d="m1107.28 730.91-11.99.06c.37-7.66 4.37-11.64 11.99-11.93l-.06-.06V731l.08-.08h-.02Z"/><path d="M1107.26 742.92v-12l-.08.07 12.01-.06c-.02 8.01-4.02 11.99-11.99 11.93l.06.06Z"/><path d="m1107.28 754.77-11.99.06c.37-7.66 4.37-11.64 11.99-11.93l-.06-.06v12.01l.08-.08h-.02Z"/><path d="M1107.26 766.78v-12l-.08.07 12.01-.06c-.02 8-4.02 11.99-11.99 11.93l.06.06Z"/><path d="m1107.28 778.63-11.99.06c.37-7.66 4.37-11.64 11.99-11.93l-.06-.06v12.01l.08-.08h-.02Z"/><path d="M1107.26 790.64v-12l-.08.07 12.01-.06c-.02 8.01-4.02 11.99-11.99 11.94l.06.05Z"/><path d="m1107.28 802.5-11.99.05c.37-7.66 4.37-11.64 11.99-11.93l-.06-.06v12.01l.08-.08h-.02Z"/><path d="M1107.26 814.5v-12l-.08.07 12.01-.06c-.02 8.01-4.02 11.99-11.99 11.93l.06.06Zm-.08-322.17 12.01.08-.06-.06c.07 8-3.91 11.98-11.93 11.93l.06.06-.08-12.01Zm23.88.07h12.01l-.06-.05c.06 7.95-3.91 11.95-11.93 11.99l.06-11.99-.08.08v-.02Zm.06 107.36v-12l-.08.07c4.01-.02 8-.04 12.01-.08-.03 8-4.03 11.99-11.99 11.93l.08.06-.02.02Zm0 11.87-11.99.06c.37-7.67 4.36-11.64 11.99-11.93l-.06-.06v12.01l.08-.08h-.02Z"/><path d="M1119.13 587.83c.38-7.66 4.38-11.64 11.99-11.93l-.06-.06v12.01l.08-.08-11.99.06h-.02Z"/><path d="M1131.12 575.9v-12l-.08.07c4.01-.02 8-.04 12.01-.08-.03 8-4.03 11.99-11.99 11.93l.06.06v.02Z"/><path d="M1119.13 563.97c.38-7.67 4.38-11.64 11.99-11.93l-.06-.06v12l.08-.07-11.99.06h-.02Z"/><path d="M1131.12 552.06v-12l-.08.07c4.01-.02 8-.04 12.01-.08-.03 8-4.03 11.98-11.99 11.93l.06.06v.02Z"/><path d="M1119.13 540.11c.38-7.66 4.38-11.64 11.99-11.93l-.06-.06v12.01l.08-.08-11.99.06h-.02Z"/><path d="m1131.04 516.17 12.01.08-.06-.06c.06 8-3.91 11.98-11.93 11.93l.06.06-.08-12.01Z"/><path d="M1131.12 504.28v12l-11.99-.01c.37-7.61 4.36-11.61 11.99-12Zm0 119.34v-12l-.08.07 12.01-.06c-.03 8-4.03 11.98-11.99 11.93l.06.06Z"/><path d="m1131.12 635.47-11.99.06c.37-7.66 4.36-11.64 11.99-11.93l-.06-.06v12.01l.08-.08h-.02Z"/><path d="M1131.12 647.48v-12l-.08.07 12.01-.06c-.03 8-4.03 11.98-11.99 11.93l.06.06Z"/><path d="m1131.12 659.33-11.99.06c.37-7.66 4.36-11.64 11.99-11.93l-.06-.06v12.01l.08-.08h-.02Z"/><path d="M1131.12 671.34v-12l-.08.07 12.01-.06c-.03 8-4.03 11.98-11.99 11.93l.06.06Z"/><path d="m1131.12 683.2-11.99.05c.37-7.66 4.36-11.64 11.99-11.93l-.06-.06v12.01l.08-.08h-.02Z"/><path d="M1131.12 695.2v-12l-.08.07 12.01-.06c-.03 8-4.03 11.98-11.99 11.93l.06.06Z"/><path d="m1131.12 707.05-11.99.06c.37-7.66 4.36-11.64 11.99-11.93l-.06-.06v12.01l.08-.08h-.02Z"/><path d="M1131.12 719.06v-12l-.08.07 12.01-.06c-.03 8-4.03 11.98-11.99 11.93l.06.06Z"/><path d="m1131.12 730.91-11.99.06c.37-7.66 4.36-11.64 11.99-11.93l-.06-.06V731l.08-.08h-.02Z"/><path d="M1131.12 742.92v-12l-.08.07 12.01-.06c-.03 8.01-4.03 11.99-11.99 11.93l.06.06Z"/><path d="m1131.12 754.77-11.99.06c.37-7.66 4.36-11.64 11.99-11.93l-.06-.06v12.01l.08-.08h-.02Z"/><path d="M1131.12 766.78v-12l-.08.07 12.01-.06c-.03 8-4.03 11.99-11.99 11.93l.06.06Z"/><path d="m1131.12 778.63-11.99.06c.37-7.66 4.36-11.64 11.99-11.93l-.06-.06v12.01l.08-.08h-.02Z"/><path d="M1131.12 790.64v-12l-.08.07 12.01-.06c-.03 8.01-4.03 11.99-11.99 11.94l.06.05Z"/><path d="m1131.12 802.5-11.99.05c.37-7.66 4.36-11.64 11.99-11.93l-.06-.06v12.01l.08-.08h-.02Z"/><path d="M1131.12 814.5v-12l-.08.07 12.01-.06c-.03 8.01-4.03 11.99-11.99 11.93l.06.06Z"/></g></g><path fill="#CCEDF9" d="M-246 637v394h475V637h-475Z"/><path fill="#12285F" d="M191 637v394h38V637h-38Z"/><path fill="#CCBAF4" d="M-246 460v177h437V460h-437Z"/><path fill="#CCEDF9" d="M704 814v217h217V814H704Z"/><path fill="#12285F" d="M704 1031v217h217v-217H704Z"/><path fill="#CCBAF4" d="M1028.44 814.02 922.61 919.87l111.03 111.02 105.83-105.83-111.03-111.02Z"/><path fill="#FFC423" d="M285.76-4 229 52.76l59.54 59.54 56.76-56.76L285.76-4Z"/><mask id="g" width="302" height="320" x="704" y="1031" maskUnits="userSpaceOnUse" style="mask-type:luminance"><path fill="#fff" d="M1006 1351v-320H704v320h302Z"/></mask><g mask="url(#g)" opacity=".2"><mask id="h" width="394" height="787" x="699" y="626" maskUnits="userSpaceOnUse" style="mask-type:luminance"><path fill="#fff" d="M1093 1413V626.83H699.97V1413H1093Z" opacity=".2"/></mask><g fill="#E4E4E4" mask="url(#h)" opacity=".65"><path d="M715.71 1136.76v-12.01l-.08.08c4.01-.02 8-.04 12.01-.08-.03 8.01-4.02 11.98-11.99 11.93l.08.06-.02.02Z"/><path d="M703.72 1124.83c.38-7.66 4.38-11.64 12-11.93l-.07-.06v12.01l.08-.08-11.99.06h-.02Z"/><path d="M715.7 1112.9v-12.01l-.09.08c4.01-.02 8-.04 12.01-.08-.02 8.01-4.02 11.99-11.99 11.93l.06.06v.02Z"/><path d="M703.72 1100.97c.38-7.67 4.38-11.64 12-11.93l-.07-.06v12.01l.08-.08-11.99.06h-.02Z"/><path d="M715.7 1089.06v-12.01l-.09.08c4.01-.02 8-.04 12.01-.08-.02 8.01-4.02 11.98-11.99 11.93l.06.06v.02Z"/><path d="M703.72 1077.11c.38-7.66 4.38-11.64 12-11.93l-.07-.06v12.01l.08-.08-11.99.06h-.02Z"/><path d="M715.7 1065.2v-12.01l-.09.08c4.01-.02 8-.04 12.01-.08-.02 8.01-4.02 11.98-11.99 11.93l.06.06v.02Z"/><path d="M703.72 1053.25c.38-7.67 4.38-11.64 12-11.93l-.07-.06v12.01l.08-.08-11.99.06h-.02Z"/><path d="M715.7 1041.34v-12.01l-.09.08c4.01-.02 8-.04 12.01-.08-.02 8.01-4.02 11.98-11.99 11.93l.06.06v.02Zm23.87 95.42v-12.01l-.08.08c4-.02 8-.04 12-.08-.02 8.01-4.02 11.98-11.98 11.93l.08.06-.02.02Z"/><path d="M727.58 1124.83c.38-7.66 4.38-11.64 11.99-11.93l-.06-.06v12.01l.08-.08-12 .06h-.01Z"/><path d="M739.55 1112.9v-12.01l-.08.08c4-.02 8-.04 12-.08-.02 8.01-4.01 11.99-11.98 11.93l.06.06v.02Z"/><path d="M727.58 1100.97c.38-7.67 4.38-11.64 11.99-11.93l-.06-.06v12.01l.08-.08-12 .06h-.01Z"/><path d="M739.55 1089.06v-12.01l-.08.08c4-.02 8-.04 12-.08-.02 8.01-4.01 11.98-11.98 11.93l.06.06v.02Z"/><path d="M727.58 1077.11c.38-7.66 4.38-11.64 11.99-11.93l-.06-.06v12.01l.08-.08-12 .06h-.01Z"/><path d="M739.55 1065.2v-12.01l-.08.08c4-.02 8-.04 12-.08-.02 8.01-4.01 11.98-11.98 11.93l.06.06v.02Z"/><path d="M727.58 1053.25c.38-7.67 4.38-11.64 11.99-11.93l-.06-.06v12.01l.08-.08-12 .06h-.01Z"/><path d="M739.55 1041.34v-12.01l-.08.08c4-.02 8-.04 12-.08-.02 8.01-4.01 11.98-11.98 11.93l.06.06v.02Zm23.85 95.42v-12.01l-.07.08c4-.02 8-.04 12-.08-.02 8.01-4.02 11.98-11.99 11.93l.08.06-.02.02Z"/><path d="M751.42 1124.83c.38-7.66 4.37-11.64 11.99-11.93l-.06-.06v12.01l.07-.08-11.98.06h-.02Z"/><path d="M763.4 1112.9v-12.01l-.07.08c4-.02 8-.04 12-.08-.02 8.01-4.02 11.99-11.99 11.93l.06.06v.02Z"/><path d="M751.42 1100.97c.38-7.67 4.37-11.64 11.99-11.93l-.06-.06v12.01l.07-.08-11.98.06h-.02Z"/><path d="M763.4 1089.06v-12.01l-.07.08c4-.02 8-.04 12-.08-.02 8.01-4.02 11.98-11.99 11.93l.06.06v.02Z"/><path d="M751.42 1077.11c.38-7.66 4.37-11.64 11.99-11.93l-.06-.06v12.01l.07-.08-11.98.06h-.02Z"/><path d="M763.4 1065.2v-12.01l-.07.08c4-.02 8-.04 12-.08-.02 8.01-4.02 11.98-11.99 11.93l.06.06v.02Z"/><path d="M751.42 1053.25c.38-7.67 4.37-11.64 11.99-11.93l-.06-.06v12.01l.07-.08-11.98.06h-.02Z"/><path d="M763.4 1041.34v-12.01l-.07.08c4-.02 8-.04 12-.08-.02 8.01-4.02 11.98-11.99 11.93l.06.06v.02Zm23.86 95.42v-12.01l-.08.08c4.01-.02 8-.04 12.01-.08-.03 8.01-4.02 11.98-11.99 11.93l.08.06-.02.02Z"/><path d="M775.27 1124.83c.38-7.66 4.38-11.64 12-11.93l-.07-.06v12.01l.08-.08-11.99.06h-.02Z"/><path d="M787.26 1112.9v-12.01l-.08.08c4.01-.02 8-.04 12.01-.08-.03 8.01-4.02 11.99-11.99 11.93l.06.06v.02Z"/><path d="M775.27 1100.97c.38-7.67 4.38-11.64 12-11.93l-.07-.06v12.01l.08-.08-11.99.06h-.02Z"/><path d="M787.26 1089.06v-12.01l-.08.08c4.01-.02 8-.04 12.01-.08-.03 8.01-4.02 11.98-11.99 11.93l.06.06v.02Z"/><path d="M775.27 1077.11c.38-7.66 4.38-11.64 12-11.93l-.07-.06v12.01l.08-.08-11.99.06h-.02Z"/><path d="M787.26 1065.2v-12.01l-.08.08c4.01-.02 8-.04 12.01-.08-.03 8.01-4.02 11.98-11.99 11.93l.06.06v.02Z"/><path d="M775.27 1053.25c.38-7.67 4.38-11.64 12-11.93l-.07-.06v12.01l.08-.08-11.99.06h-.02Z"/><path d="m787.18 1029.33 12.01.08-.06-.06c.07 8.01-3.9 11.98-11.93 11.93l.06.06-.08-12.01Zm214.72.08h12l-.06-.06c.07 7.95-3.91 11.95-11.93 11.99l.06-11.99-.07.08v-.02Zm-23.86 0h12l-.05-.06c.06 7.95-3.91 11.95-11.93 11.99l.06-11.99-.08.08v-.02Zm-23.86 0h12l-.05-.06c.06 7.95-3.91 11.95-11.93 11.99l.06-11.99-.08.08v-.02Zm-23.85 0h12l-.06-.06c.07 7.95-3.9 11.95-11.92 11.99l.05-11.99-.07.08v-.02Zm-119.27 0h12l-.05-.06c.06 7.95-3.91 11.95-11.93 11.99l.06-11.99-.08.08v-.02Zm95.41 0h12l-.05-.06c.06 7.95-3.91 11.95-11.93 11.99l.06-11.99-.08.08v-.02Zm-71.56 0h12.01l-.06-.06c.07 7.95-3.9 11.95-11.93 11.99l.06-11.99-.08.08v-.02Zm47.72 0h12l-.05-.06c.06 7.95-3.91 11.95-11.93 11.99l.06-11.99-.08.08v-.02Zm-23.86 0h12.01l-.06-.06c.07 7.95-3.9 11.95-11.93 11.99l.06-11.99-.08.08v-.02Zm-47.65 107.35v-12.01l-.08.08c4-.02 8-.04 12-.08-.02 8.01-4.01 11.98-11.98 11.93l.08.06-.02.02Z"/><path d="M799.13 1124.83c.38-7.66 4.38-11.64 11.99-11.93l-.06-.06v12.01l.08-.08-12 .06h-.01Z"/><path d="M811.12 1112.9v-12.01l-.08.08c4-.02 8-.04 12-.08-.02 8.01-4.01 11.99-11.98 11.93l.06.06v.02Z"/><path d="M799.13 1100.97c.38-7.67 4.38-11.64 11.99-11.93l-.06-.06v12.01l.08-.08-12 .06h-.01Z"/><path d="M811.12 1089.06v-12.01l-.08.08c4-.02 8-.04 12-.08-.02 8.01-4.01 11.98-11.98 11.93l.06.06v.02Z"/><path d="M799.13 1077.11c.38-7.66 4.38-11.64 11.99-11.93l-.06-.06v12.01l.08-.08-12 .06h-.01Z"/><path d="m811.04 1053.17 12 .08-.05-.06c.06 8.01-3.91 11.98-11.93 11.93l.06.06-.08-12.01Z"/><path d="M811.12 1041.28v12.01c-4 0-7.98 0-11.99-.02.37-7.61 4.36-11.61 11.99-11.99Zm202.76 11.93c-.04 8-4.03 11.98-11.98 11.93l.05.06v-12.01l-.07.08 11.98-.06h.02Z"/><path d="M990.04 1053.27c.28-7.61 4.25-11.61 11.93-11.99l-.06 11.99.08-.08h-12l.05.06v.02Zm23.84 23.8c-.04 8.01-4.03 11.98-11.98 11.93l.05.06v-12.01l-.07.08 11.98-.06h.02Z"/><path d="M1001.9 1065.12v12.01l.08-.08c-4 .02-8 .04-12 .08.38-7.67 4.37-11.64 12-11.93l-.06-.06-.02-.02Zm11.98 35.79c-.04 8.01-4.03 11.98-11.98 11.93l.05.06v-12.01l-.07.08 11.98-.06h.02Z"/><path d="M1001.9 1088.98v12.01l.08-.08c-4 .02-8 .04-12 .08.38-7.67 4.37-11.64 12-11.93l-.06-.06-.02-.02Zm11.98 35.79c-.04 8.01-4.03 11.98-11.98 11.93l.05.06v-12.01l-.07.08 11.98-.06h.02Z"/><path d="M1001.9 1112.84v12.01l.08-.08-12 .08c.38-7.66 4.37-11.64 12-11.93l-.06-.06-.02-.02Zm-23.86-59.57h12l-.05-.06c.06 7.95-3.91 11.95-11.93 11.99l.06-11.99-.08.08v-.02Z"/><path d="M966.19 1053.27c.27-7.61 4.25-11.61 11.93-11.99l-.06 11.99.08-.08h-12.01l.06.06v.02Zm-12.01 0h12l-.05-.06c.06 7.95-3.91 11.95-11.93 11.99l.06-11.99-.08.08v-.02Z"/><path d="M942.33 1053.27c.28-7.61 4.25-11.61 11.93-11.99l-.06 11.99.08-.08h-12l.05.06v.02Zm-12 0h12l-.06-.06c.07 7.95-3.9 11.95-11.92 11.99l.05-11.99-.07.08v-.02Z"/><path d="M918.47 1053.27c.28-7.61 4.25-11.61 11.93-11.99l-.06 11.99.08-.08h-12l.05.06v.02Zm-12 0h12l-.06-.06c.07 7.95-3.9 11.95-11.92 11.99l.05-11.99-.07.08v-.02Z"/><path d="M894.62 1053.27c.27-7.61 4.25-11.61 11.93-11.99l-.06 11.99.08-.08h-12.01l.06.06v.02Zm-59.64-11.99-.06 11.99.08-.08h-12.01l.06.08c.27-7.61 4.25-11.61 11.93-11.99Z"/><path d="M882.63 1053.27h12l-.05-.06c.06 7.95-3.91 11.95-11.93 11.99l.06-11.99-.08.08v-.02Zm-11.87 0c.28-7.61 4.25-11.61 11.93-11.99l-.06 11.99.08-.08h-12l.05.06v.02Zm-35.85 0h12.01l-.06-.06c.07 7.95-3.9 11.95-11.93 11.99l.06-11.99-.08.08v-.02Z"/><path d="m858.83 1041.28-.06 11.99.08-.08h-12l.05.08c.28-7.61 4.25-11.61 11.93-11.99Z"/><path d="M858.77 1053.27h12.01l-.06-.06c.07 7.95-3.9 11.95-11.93 11.99l.06-11.99-.08.08v-.02Zm-23.8 83.49v-12.01l-.08.08c4.01-.02 8-.04 12.01-.08-.02 8.01-4.02 11.98-11.99 11.93l.08.06-.02.02Z"/><path d="M822.99 1124.83c.38-7.66 4.38-11.64 11.99-11.93l-.06-.06v12.01l.08-.08-12 .06Z"/><path d="M834.97 1112.9v-12.01l-.08.08c4.01-.02 8-.04 12.01-.08-.02 8.01-4.02 11.99-11.99 11.93l.06.06v.02Z"/><path d="M822.99 1100.97c.38-7.67 4.38-11.64 11.99-11.93l-.06-.06v12.01l.08-.08-12 .06Z"/><path d="m834.9 1077.03 12 .08-.06-.06c.07 8.01-3.9 11.98-11.93 11.93l.06.06-.08-12.01Z"/><path d="M834.98 1065.12v12.01c-3.97 0-7.98 0-12-.02.38-7.61 4.37-11.61 12-11.99Zm155.05 11.95c-.04 8.01-4.04 11.98-12 11.93l.07.06v-12.01l-.08.08 11.99-.06h.02Z"/><path d="M966.19 1077.13c.27-7.61 4.25-11.61 11.93-11.99l-.06 11.99.08-.08h-12.01l.06.06v.02Zm23.84 23.78c-.04 8.01-4.04 11.98-12 11.93l.07.06v-12.01l-.08.08 11.99-.06h.02Z"/><path d="M978.04 1088.98v12.01l.08-.08c-4 .02-8 .04-11.99.08.37-7.67 4.36-11.64 11.99-11.93l-.06-.06-.02-.02Zm11.99 35.79c-.04 8.01-4.04 11.98-12 11.93l.07.06v-12.01l-.08.08 11.99-.06h.02Z"/><path d="M978.04 1112.84v12.01l.08-.08-11.99.08c.37-7.66 4.36-11.64 11.99-11.93l-.06-.06-.02-.02Zm-23.86-35.71h12l-.05-.06c.06 7.95-3.91 11.95-11.93 11.99l.06-11.99-.08.08v-.02Z"/><path d="M942.33 1077.13c.28-7.61 4.25-11.61 11.93-11.99l-.06 11.99.08-.08h-12l.05.06v.02Zm-12 0h12l-.06-.06c.07 7.95-3.9 11.95-11.92 11.99l.05-11.99-.07.08v-.02Z"/><path d="M918.47 1077.13c.28-7.61 4.25-11.61 11.93-11.99l-.06 11.99.08-.08h-12l.05.06v.02Zm-12 0h12l-.06-.06c.07 7.95-3.9 11.95-11.92 11.99l.05-11.99-.07.08v-.02Z"/><path d="M894.62 1077.13c.27-7.61 4.25-11.61 11.93-11.99l-.06 11.99.08-.08h-12.01l.06.06v.02Z"/><path d="M882.63 1077.13h12l-.05-.06c.06 7.95-3.91 11.95-11.93 11.99l.06-11.99-.08.08v-.02Zm-11.87 0c.27-7.61 4.25-11.61 11.93-11.99l-.06 11.99.08-.08H870.7l.06.06v.02Z"/><path d="M858.77 1077.13h12.01l-.06-.06c.07 7.95-3.9 11.95-11.93 11.99l.06-11.99-.08.08v-.02Zm-11.87 0c.28-7.61 4.25-11.61 11.93-11.99l-.06 11.99.08-.08h-12l.05.06v.02Zm11.93 59.63v-12.01l-.08.08c4.01-.02 8-.04 12.01-.08-.02 8.01-4.02 11.98-11.99 11.93l.08.06-.02.02Z"/><path d="M846.84 1124.83c.38-7.66 4.38-11.64 12-11.93l-.07-.06v12.01l.08-.08-11.99.06h-.02Z"/><path d="m858.75 1100.89 12.01.08-.06-.06c.07 8.01-3.9 11.98-11.93 11.93l.06.06-.08-12.01Z"/><path d="M858.83 1088.98v12.01c-3.99 0-7.98 0-11.99-.02.37-7.61 4.37-11.61 12-11.99Zm107.34 11.93c-.04 8.01-4.04 11.98-11.99 11.93l.06.06v-12.01l-.08.08 11.99-.06h.02Z"/><path d="M942.33 1100.99c.28-7.61 4.25-11.61 11.93-11.99l-.06 11.99.08-.08h-12l.05.06v.02Zm23.84 23.78c-.04 8.01-4.04 11.98-11.99 11.93l.06.06v-12.01l-.08.08 11.99-.06h.02Z"/><path d="M954.2 1112.84v12.01l.08-.08-11.99.08c.37-7.66 4.37-11.64 11.99-11.93l-.06-.06-.02-.02Zm-23.87-11.85h12l-.06-.06c.07 7.96-3.9 11.95-11.92 11.99l.05-11.99-.07.08v-.02Z"/><path d="M918.47 1100.99c.28-7.61 4.25-11.61 11.93-11.99l-.06 11.99.08-.08h-12l.05.06v.02Zm-12 0h12l-.06-.06c.07 7.96-3.9 11.95-11.92 11.99l.05-11.99-.07.08v-.02Z"/><path d="M894.62 1100.99c.27-7.61 4.25-11.61 11.93-11.99l-.06 11.99.08-.08h-12.01l.06.06v.02Z"/><path d="M882.63 1100.99h12l-.05-.06c.06 7.96-3.91 11.95-11.93 11.99l.06-11.99-.08.08v-.02Zm-11.87 0c.27-7.61 4.25-11.61 11.93-11.99l-.06 11.99.08-.08H870.7l.06.06v.02Zm11.84 23.76 12.02.08-.06-.06c.06 8.01-3.91 11.98-11.93 11.93l.06.06-.08-12.01Z"/><path d="M882.69 1112.84v12.01c-4 0-7.98 0-11.99-.02.37-7.61 4.36-11.61 11.99-11.99Zm59.62 11.93c-.04 8.01-4.03 11.98-11.98 11.93l.05.06v-12.01l-.08.08 12-.06h.01Z"/><path d="M918.47 1124.85c.28-7.61 4.25-11.61 11.93-11.99l-.06 11.99.08-.08h-12l.05.06v.02Zm-12 0h12l-.06-.06c.07 7.95-3.9 11.95-11.92 11.99l.05-11.99-.07.08v-.02Z"/><path d="M894.62 1124.85c.27-7.61 4.25-11.61 11.93-11.99l-.06 11.99.08-.08h-12.01l.06.06v.02Z"/></g></g><mask id="i" width="302" height="136" x="-73" y="-24" maskUnits="userSpaceOnUse" style="mask-type:luminance"><path fill="#fff" d="M229 112V-24H-73v136h302Z"/></mask><g mask="url(#i)" opacity=".2"><mask id="j" width="394" height="787" x="-78" y="-429" maskUnits="userSpaceOnUse" style="mask-type:luminance"><path fill="#fff" d="M316 358v-786.17H-77.03V358H316Z" opacity=".2"/></mask><g fill="#E4E4E4" mask="url(#j)" opacity=".65"><path d="M10.26 81.76v-12l-.08.07c4.01-.02 8-.04 12.01-.08-.02 8-4.02 11.98-11.99 11.93l.08.06-.02.02Z"/><path d="m10.28 93.63-11.99.06c.37-7.66 4.37-11.64 12-11.93l-.07-.06v12.01l.08-.08h-.02Zm-12.01-23.8c.38-7.66 4.38-11.64 12-11.93l-.07-.06v12.01l.08-.08-11.99.06h-.02Z"/><path d="M10.26 57.9v-12l-.08.07c4.01-.02 8-.04 12.01-.08-.02 8-4.02 11.99-11.99 11.93l.06.06v.02Z"/><path d="M-1.73 45.97c.38-7.67 4.38-11.64 12-11.93l-.07-.06v12l.08-.07-11.99.06h-.02Z"/><path d="M10.26 34.06v-12l-.08.07c4.01-.02 8-.04 12.01-.08-.02 8-4.02 11.98-11.99 11.93l.06.06v.02Z"/><path d="M-1.73 22.11c.38-7.66 4.38-11.64 12-11.93l-.07-.06v12.01l.08-.08-11.99.06h-.02Z"/><path d="M10.26 10.2V-1.81l-.08.08c4.01-.02 8-.04 12.01-.08-.02 8-4.02 11.98-11.99 11.93l.06.06v.02Zm0 95.42v-12l-.08.07 12.01-.06c-.02 8-4.02 11.98-11.99 11.93l.06.06Z"/><path d="m10.28 117.47-11.99.06c.37-7.67 4.37-11.64 12-11.93l-.07-.06v12.01l.08-.08h-.02Zm23.84-35.71v-12l-.08.07c4-.02 8-.04 12-.08-.02 8-4.02 11.98-11.98 11.93l.08.06-.02.02Z"/><path d="m34.12 93.63-11.99.06c.37-7.66 4.36-11.64 11.99-11.93l-.06-.06v12.01l.08-.08h-.02Zm-11.99-23.8c.38-7.66 4.38-11.64 11.99-11.93l-.06-.06v12.01l.08-.08-12 .06h-.01ZM34.12 57.9v-12l-.08.07c4-.02 8-.04 12-.08-.02 8-4.02 11.99-11.98 11.93l.06.06v.02Z"/><path d="M22.13 45.97c.38-7.67 4.38-11.64 11.99-11.93l-.06-.06v12l.08-.07-12 .06h-.01Z"/><path d="M34.12 34.06v-12l-.08.07c4-.02 8-.04 12-.08-.02 8-4.02 11.98-11.98 11.93l.06.06v.02Z"/><path d="M22.13 22.11c.38-7.66 4.38-11.64 11.99-11.93l-.06-.06v12.01l.08-.08-12 .06h-.01ZM34.04-1.83l12 .08-.05-.06c.06 8-3.91 11.98-11.93 11.93l.06.06-.08-12.01Zm.08 107.45v-12l-.08.07 12-.06c-.02 8-4.02 11.98-11.98 11.93l.06.06Z"/><path d="m34.12 117.47-11.99.06c.37-7.67 4.36-11.64 11.99-11.93l-.06-.06v12.01l.08-.08h-.02ZM236.88-1.8c-.04 8.02-4.03 12-11.98 11.94l.05.06V-1.81l-.07.08 11.98-.06h.02Zm0 23.87c-.04 8-4.03 11.98-11.98 11.93l.05.06v-12l-.07.07 11.98-.06h.02Z"/><path d="M224.9 10.12v12.01l.08-.08c-4 .02-8 .04-12 .08.38-7.67 4.37-11.64 12-11.93l-.06-.06-.02-.02Zm11.98 35.79c-.04 8-4.03 11.98-11.98 11.93l.05.06v-12l-.07.07 11.98-.06h.02Z"/><path d="M224.9 33.98v12l.08-.07c-4 .02-8 .04-12 .08.38-7.67 4.37-11.64 12-11.93l-.06-.06-.02-.02Zm11.98 35.79c-.04 8-4.03 11.98-11.98 11.93l.05.06v-12l-.07.07 11.98-.06h.02Z"/><path d="M224.9 57.84v12.01l.08-.08-12 .08c.38-7.66 4.37-11.64 12-11.93l-.06-.06-.02-.02Zm11.98 35.79c-.04 8-4.03 11.98-11.98 11.93l.05.06v-12l-.07.07 11.98-.06h.02Z"/><path d="M224.9 81.7v12.01l.08-.08-12 .08c.38-7.67 4.37-11.64 12-11.93l-.06-.06-.02-.02Zm0 23.86v12.01l.07-.08-11.98.08c.36-7.66 4.36-11.64 11.98-11.93l-.06-.06-.02-.02ZM201.04-1.73h12L213-1.8c.06 7.95-3.91 11.95-11.93 11.99l.06-12-.08.09v-.02Zm-23.86 0h12l-.05-.06c.06 7.95-3.91 11.95-11.93 11.99l.06-12-.08.09v-.02Zm-23.86 0h12.01l-.06-.06c.07 7.95-3.9 11.95-11.93 11.99l.06-12-.08.09v-.02Zm-23.85 0h12l-.06-.06c.07 7.95-3.9 11.95-11.92 11.99l.05-12-.07.09v-.02Zm-23.84 0h12l-.05-.06c.06 7.95-3.91 11.95-11.93 11.99l.06-12-.08.09v-.02Zm-47.72 0h12.01l-.06-.06c.07 7.95-3.9 11.95-11.93 11.99l.06-12-.08.09v-.02Zm23.86 0h12.01l-.06-.06c.07 7.95-3.9 11.95-11.93 11.99l.06-12-.08.09v-.02Zm-23.8 83.49v-12l-.07.07c4-.02 8-.04 12-.08-.02 8-4.02 11.98-11.99 11.93l.08.06-.02.02Z"/><path d="m57.98 93.63-12 .06c.38-7.66 4.37-11.64 12-11.93l-.06-.06v12.01l.08-.08h-.02Zm-11.99-23.8c.38-7.66 4.37-11.64 11.99-11.93l-.06-.06v12.01l.08-.08-12 .06Z"/><path d="M57.97 57.9v-12l-.07.07c4-.02 8-.04 12-.08-.02 8-4.02 11.99-11.99 11.93l.06.06v.02Z"/><path d="M45.99 45.97c.38-7.67 4.37-11.64 11.99-11.93l-.06-.06v12l.08-.07-12 .06Z"/><path d="m57.9 22.03 12 .08-.06-.06c.07 8-3.9 11.98-11.93 11.93l.06.06-.07-12Z"/><path d="M57.98 10.12v12.01c-3.97 0-7.98 0-12-.02.38-7.61 4.37-11.6 12-11.99Zm0 95.5v-12l-.08.07 12-.06c-.02 8-4.02 11.98-11.98 11.93l.06.06Z"/><path d="m57.98 117.47-12 .06c.38-7.67 4.37-11.64 12-11.93l-.06-.06v12.01l.08-.08h-.02Zm155.05-95.4c-.04 8-4.04 11.98-11.99 11.93l.06.06v-12l-.08.07 11.99-.06h.02Z"/><path d="M189.19 22.13c.27-7.61 4.25-11.6 11.93-11.99l-.06 11.99.08-.08h-12.01l.06.06v.02Zm23.84 23.78c-.04 8-4.04 11.98-11.99 11.93l.06.06v-12l-.08.07 11.99-.06h.02Z"/><path d="M201.04 33.98v12l.08-.07c-4 .02-8 .04-11.99.08.37-7.67 4.36-11.64 11.99-11.93l-.06-.06-.02-.02Zm11.99 35.79c-.04 8-4.04 11.98-11.99 11.93l.06.06v-12l-.08.07 11.99-.06h.02Z"/><path d="M201.04 57.84v12.01l.08-.08-11.99.08c.37-7.66 4.36-11.64 11.99-11.93l-.06-.06-.02-.02Zm11.99 35.79c-.04 8-4.04 11.98-11.99 11.93l.06.06v-12l-.08.07 11.99-.06h.02Z"/><path d="M201.04 81.7v12.01l.08-.08-11.99.08c.37-7.67 4.36-11.64 11.99-11.93l-.06-.06-.02-.02Zm0 23.86v12.01l.08-.08-11.99.08c.37-7.66 4.36-11.64 11.99-11.93l-.06-.06-.02-.02Zm-23.86-83.43h12l-.05-.06c.06 7.95-3.91 11.95-11.93 11.99l.06-11.99-.08.08v-.02Z"/><path d="M165.33 22.13c.28-7.61 4.25-11.6 11.93-11.99l-.06 11.99.08-.08h-12l.05.06v.02Zm-12.01 0h12.01l-.06-.06c.07 7.95-3.9 11.95-11.93 11.99l.06-11.99-.08.08v-.02Z"/><path d="M141.47 22.13c.28-7.61 4.25-11.6 11.93-11.99l-.06 11.99.08-.08h-12l.05.06v.02Zm-12 0h12l-.06-.06c.07 7.95-3.9 11.95-11.92 11.99l.05-11.99-.07.08v-.02Z"/><path d="M117.62 22.13c.27-7.61 4.25-11.6 11.93-11.99l-.06 11.99.08-.08h-12.01l.06.06v.02Z"/><path d="M105.63 22.13h12l-.05-.06c.06 7.95-3.91 11.95-11.93 11.99l.06-11.99-.08.08v-.02Zm-11.87 0c.27-7.61 4.25-11.6 11.93-11.99l-.06 11.99.08-.08H93.7l.06.06v.02Z"/><path d="M81.77 22.13h12.01l-.06-.06c.07 7.95-3.9 11.95-11.93 11.99l.06-11.99-.08.08v-.02Z"/><path d="M69.9 22.13c.28-7.61 4.25-11.6 11.93-11.99l-.06 11.99.08-.08h-12l.05.06v.02Zm11.93 59.63v-12l-.08.07c4.01-.02 8-.04 12.01-.08-.02 8-4.02 11.98-11.99 11.93l.08.06-.02.02Z"/><path d="m81.83 93.63-11.99.06c.37-7.66 4.37-11.64 12-11.93l-.07-.06v12.01l.08-.08h-.02Zm-11.99-23.8c.38-7.66 4.38-11.64 12-11.93l-.07-.06v12.01l.08-.08-11.99.06h-.02Z"/><path d="m81.75 45.9 12.01.07-.06-.06c.07 8-3.9 11.98-11.93 11.93l.06.06-.08-12Z"/><path d="M81.83 33.98v12l-11.99-.01c.37-7.61 4.37-11.6 12-11.99Zm0 71.64v-12l-.08.07 12.01-.06c-.02 8-4.02 11.98-11.99 11.93l.06.06Z"/><path d="m81.83 117.47-11.99.06c.37-7.67 4.37-11.64 12-11.93l-.07-.06v12.01l.08-.08h-.02Zm107.34-71.56c-.04 8-4.04 11.98-11.99 11.93l.06.06v-12l-.08.07 11.99-.06h.02Z"/><path d="M165.33 45.99c.28-7.61 4.25-11.61 11.93-11.99l-.06 11.99.08-.08h-12l.05.06v.02Zm23.84 23.78c-.04 8-4.04 11.98-11.99 11.93l.06.06v-12l-.08.07 11.99-.06h.02Z"/><path d="M177.2 57.84v12.01l.08-.08-11.99.08c.37-7.66 4.37-11.64 12-11.93l-.07-.06-.02-.02Zm11.97 35.79c-.04 8-4.04 11.98-11.99 11.93l.06.06v-12l-.08.07 11.99-.06h.02Z"/><path d="M177.2 81.7v12.01l.08-.08-11.99.08c.37-7.67 4.37-11.64 12-11.93l-.07-.06-.02-.02Zm0 23.86v12.01l.08-.08-11.99.08c.37-7.66 4.37-11.64 12-11.93l-.07-.06-.02-.02ZM153.32 46h12.01l-.06-.07c.07 7.96-3.9 11.95-11.93 12l.06-12-.08.08v-.02Z"/><path d="M141.47 45.99c.28-7.61 4.25-11.61 11.93-11.99l-.06 11.99.08-.08h-12l.05.06v.02Zm-12 .01h12l-.06-.07c.07 7.96-3.9 11.95-11.92 12l.05-12-.07.08v-.02Z"/><path d="M117.62 45.99c.27-7.61 4.25-11.61 11.93-11.99l-.06 11.99.08-.08h-12.01l.06.06v.02Z"/><path d="M105.63 46h12l-.05-.07c.06 7.96-3.91 11.95-11.93 12l.06-12-.08.08v-.02Zm-11.87-.01C94.03 38.38 98 34.38 105.69 34l-.06 11.99.08-.08H93.7l.06.06v.02Zm11.85 23.76 12 .08-.05-.06c.06 8-3.91 11.98-11.93 11.93l.06.06-.08-12Z"/><path d="m105.69 93.63-11.99.06c.37-7.66 4.36-11.64 11.99-11.93l-.06-.06v12.01l.08-.08h-.02Zm0-35.79v12.01c-4 0-7.98 0-11.99-.02.37-7.61 4.36-11.6 11.99-11.99Z"/><path d="M105.69 105.62v-12l-.08.07 12-.06c-.02 8-4.02 11.98-11.98 11.93l.06.06Z"/><path d="m105.7 117.47-12 .06c.37-7.67 4.37-11.64 12-11.93l-.07-.06v12.01l.08-.08h-.02Zm59.61-47.7c-.04 8-4.03 11.98-11.99 11.93l.06.06v-12l-.07.07 11.98-.06h.02Z"/><path d="M141.47 69.85c.28-7.61 4.25-11.6 11.93-11.99l-.06 11.99.08-.08h-12l.05.06v.02Zm23.84 23.78c-.04 8-4.03 11.98-11.99 11.93l.06.06v-12l-.07.07 11.98-.06h.02Z"/><path d="M153.34 81.7v12.01l.08-.08-11.99.08c.37-7.67 4.37-11.64 12-11.93l-.07-.06-.02-.02Zm0 23.86v12.01l.08-.08-11.99.08c.37-7.66 4.37-11.64 12-11.93l-.07-.06-.02-.02Zm-23.87-35.71h12l-.06-.06c.07 7.95-3.9 11.95-11.92 11.99l.05-11.99-.07.08v-.02Z"/><path d="M117.62 69.85c.27-7.61 4.25-11.6 11.93-11.99l-.06 11.99.08-.08h-12.01l.06.06v.02Zm11.93 11.85v12.01c-4 0-7.98 0-12-.02.38-7.61 4.37-11.6 12-11.99Z"/><path d="M141.48 93.63c-.04 7.95-4.04 11.95-12 11.99v-12l12 .01Z"/><path d="M129.55 105.56v12.01c-4 0-7.98 0-12-.02.38-7.61 4.37-11.6 12-11.99Z"/></g></g><mask id="k" width="38" height="394" x="191" y="637" maskUnits="userSpaceOnUse" style="mask-type:luminance"><path fill="#fff" d="M191 1031h38V637h-38v394Z"/></mask><g mask="url(#k)" opacity=".2"><mask id="l" width="849" height="420" x="-75" y="632" maskUnits="userSpaceOnUse" style="mask-type:luminance"><path fill="#fff" d="M-74.42 1051.13h848.24V632.71H-74.42v418.42Z" opacity=".2"/></mask><g fill="#E4E4E4" mask="url(#l)" opacity=".65"><path d="M223.63 649.47h12.96l-.09-.09c.02 4.27.04 8.52.09 12.79-8.64-.03-12.93-4.29-12.88-12.77l-.06.09-.02-.02Zm-12.81 0-.06-12.76c8.27.39 12.56 4.64 12.87 12.76l.06-.07h-12.95l.08.09v-.02Z"/><path d="M197.89 649.47h12.95l-.08-.09.06 12.79c-8.63-.03-12.93-4.29-12.87-12.77l-.06.07Z"/><path d="m185.1 649.47-.07-12.76c8.27.39 12.56 4.64 12.88 12.76l.06-.07H185l.09.09v-.02Zm38.53 25.4h12.96l-.09-.09c.02 4.27.04 8.52.09 12.78-8.64-.02-12.93-4.28-12.88-12.76l-.06.09-.02-.02Zm-12.81-.01-.06-12.76c8.27.4 12.56 4.65 12.87 12.76l.06-.06h-12.95l.08.09v-.03Z"/><path d="M197.89 674.87h12.95l-.08-.09.06 12.78c-8.63-.02-12.93-4.28-12.87-12.76l-.06.07Z"/><path d="m185.1 674.86-.07-12.76c8.27.4 12.56 4.65 12.88 12.76l.06-.06H185l.09.09v-.03Zm51.46 368.24c-8.63-.04-12.92-4.3-12.87-12.76l-.06.06h12.96l-.09-.09.06 12.77v.02Zm-25.74 0c-8.63-.05-12.93-4.3-12.87-12.77l-.06.07h12.95l-.08-.09.06 12.76v.03Z"/><path d="M223.7 1030.33h-12.96l.08.09-.08-12.76c8.26.39 12.56 4.64 12.87 12.76l.06-.06.02-.03Zm-25.75 0h-12.96l.09.09-.09-12.76c8.27.39 12.56 4.64 12.87 12.76l.07-.06.02-.03Zm25.68-330.09h12.96l-.09-.08c.02 4.27.04 8.51.09 12.78-8.64-.03-12.93-4.28-12.88-12.76l-.06.08-.02-.02Z"/><path d="m210.82 700.26-.06-12.76c8.27.4 12.56 4.64 12.87 12.76l.06-.06h-12.95l.08.08v-.02Z"/><path d="M197.89 700.24h12.95l-.08-.08.06 12.78c-8.63-.03-12.93-4.28-12.87-12.76l-.06.06Z"/><path d="m185.1 700.26-.07-12.76c8.27.4 12.56 4.64 12.88 12.76l.06-.06H185l.09.08v-.02Zm51.46 317.44c-8.63-.04-12.92-4.3-12.87-12.76l-.06.06h12.96l-.09-.08.06 12.76v.02Zm-25.74 0c-8.63-.04-12.93-4.3-12.87-12.76l-.06.06h12.95l-.08-.08.06 12.76v.02Z"/><path d="M223.7 1004.94h-12.96l.08.08-.08-12.76c8.26.39 12.56 4.64 12.87 12.76l.06-.06.02-.02Zm-25.75 0h-12.96l.09.08-.09-12.76c8.27.39 12.56 4.64 12.87 12.76l.07-.06.02-.02Zm25.68-279.3h12.96l-.09-.08c.02 4.27.04 8.51.09 12.78-8.64-.03-12.93-4.28-12.88-12.76l-.06.08-.02-.02Z"/><path d="m210.82 725.66-.06-12.76c8.27.39 12.56 4.64 12.87 12.76l.06-.06h-12.95l.08.08v-.02Z"/><path d="M197.89 725.64h12.95l-.08-.08.06 12.78c-8.63-.03-12.93-4.28-12.87-12.76l-.06.06Z"/><path d="m185.1 725.66-.06-12.76c8.27.39 12.56 4.64 12.87 12.76l.06-.06h-12.95l.08.08v-.02Zm51.46 266.64c-8.63-.04-12.92-4.3-12.87-12.76l-.06.06h12.96l-.09-.08.06 12.76v.02Zm-25.74 0c-8.63-.04-12.93-4.3-12.87-12.76l-.06.06h12.95l-.08-.08.06 12.76v.02Z"/><path d="M223.7 979.54h-12.96l.08.08c-.02-4.24-.04-8.51-.08-12.76 8.26.4 12.56 4.65 12.87 12.76l.06-.06.02-.02Zm-25.75 0h-12.96l.09.08c-.02-4.25-.05-8.51-.09-12.76 8.27.39 12.56 4.64 12.87 12.76l.07-.06.02-.02Zm25.68-228.5h12.96l-.09-.08c.02 4.26.04 8.51.09 12.78-8.64-.03-12.93-4.28-12.88-12.76l-.06.08-.02-.02Zm-12.81 0-.06-12.76c8.27.39 12.56 4.64 12.87 12.76l.06-.06h-12.95l.08.08v-.02Z"/><path d="M197.89 751.04h12.95l-.08-.08.06 12.78c-8.63-.03-12.93-4.28-12.87-12.76l-.06.06Z"/><path d="m185.1 751.04-.06-12.76c8.27.39 12.56 4.64 12.87 12.76l.06-.06h-12.95l.08.08v-.02Zm51.46 215.86c-8.63-.04-12.92-4.3-12.87-12.76l-.06.06h12.96l-.09-.08.06 12.76v.02Zm-25.74 0c-8.63-.04-12.93-4.3-12.87-12.76l-.06.06h12.95l-.08-.08.06 12.76v.02Z"/><path d="M223.7 954.14h-12.96l.08.09-.08-12.77c8.26.4 12.56 4.65 12.87 12.76l.06-.06.02-.02Zm-25.75 0h-12.96l.09.09-.09-12.77c8.27.4 12.56 4.65 12.87 12.76l.07-.06.02-.02Zm25.68-177.7h12.96l-.09-.09c.02 4.27.04 8.52.09 12.79-8.64-.03-12.93-4.28-12.88-12.76l-.06.08-.02-.02Zm-12.81 0-.06-12.77c8.27.4 12.56 4.65 12.87 12.77l.06-.07h-12.95l.08.09v-.02Z"/><path d="M197.89 776.44h12.95l-.08-.09.06 12.79c-8.63-.03-12.93-4.28-12.87-12.76l-.06.06Z"/><path d="m185.1 776.44-.06-12.77c8.27.4 12.56 4.65 12.87 12.77l.06-.07h-12.95l.08.09v-.02Zm51.46 165.06c-8.63-.04-12.92-4.3-12.87-12.76l-.06.06h12.96l-.09-.08.06 12.76v.02Zm-25.74 0c-8.63-.04-12.93-4.3-12.87-12.76l-.06.06h12.95l-.08-.08.06 12.76v.02Z"/><path d="M223.7 928.74h-12.96l.08.09-.08-12.77c8.26.4 12.56 4.65 12.87 12.77l.06-.07.02-.02Zm-25.75 0h-12.96l.09.09-.09-12.77c8.27.4 12.56 4.65 12.87 12.77l.07-.07.02-.02Zm25.68-126.91h12.96l-.09-.08c.02 4.27.04 8.51.09 12.78-8.64-.02-12.93-4.28-12.88-12.76l-.06.09-.02-.03Zm-12.81.01-.06-12.77c8.27.4 12.56 4.65 12.87 12.76l.06-.06h-12.95l.08.09v-.02Z"/><path d="M197.89 801.84h12.95l-.08-.09.06 12.78c-8.63-.02-12.93-4.28-12.87-12.76l-.06.07Z"/><path d="m185.1 801.84-.06-12.77c8.27.4 12.56 4.65 12.87 12.76l.06-.06h-12.95l.08.09v-.02Zm51.46 114.26c-8.63-.04-12.92-4.3-12.87-12.76l-.06.06h12.96l-.09-.08.06 12.76v.02Zm-25.74 0c-8.63-.04-12.93-4.29-12.87-12.76l-.06.07h12.95l-.08-.09.06 12.76v.02Z"/><path d="M223.7 903.36h-12.96l.08.09-.08-12.77c8.26.4 12.56 4.65 12.87 12.77l.06-.07.02-.02Zm-25.75 0h-12.96l.09.09-.09-12.77c8.27.4 12.56 4.65 12.87 12.77l.07-.07.02-.02Zm38.64-76.21-.09 12.78.06-.06c-8.63.07-12.92-4.16-12.87-12.7l-.06.06 12.96-.08Z"/><path d="m210.82 827.23-.06-12.76c8.27.4 12.56 4.65 12.87 12.76l.06-.06h-12.95l.08.08v-.02Z"/><path d="M197.89 827.23h12.95l-.08-.08.06 12.78c-8.63-.03-12.93-4.28-12.87-12.76l-.06.06Z"/><path d="m185.1 827.23-.06-12.76c8.27.4 12.56 4.65 12.87 12.76l.06-.06h-12.95l.08.08v-.02Zm51.46 63.47c-8.63-.04-12.92-4.29-12.87-12.75l-.06.06h12.96l-.09-.09.06 12.77v.02Zm-25.74 0c-8.63-.04-12.93-4.29-12.87-12.75l-.06.06h12.95l-.08-.09.06 12.77v.02Z"/><path d="M223.7 877.97h-12.96l.08.08-.08-12.76c8.26.39 12.56 4.64 12.87 12.76l.06-.06.02-.02Zm-25.75 0h-12.96l.09.08-.09-12.76c8.27.39 12.56 4.64 12.87 12.76l.07-.06.02-.02Zm38.53-25.42v12.78l.06-.06c-8.58.07-12.89-4.17-12.93-12.7l12.93.06-.08-.08h.02Z"/><path d="M223.7 852.63h-12.96c0-4.25 0-8.5.02-12.76 8.21.39 12.52 4.64 12.93 12.76Z"/><path d="M210.82 865.33c-8.58-.04-12.9-4.3-12.93-12.76h12.95c0 4.22 0 8.5-.02 12.76Z"/><path d="M197.95 852.63h-12.96c0-4.25 0-8.5.02-12.76 8.22.39 12.53 4.64 12.94 12.76Z"/></g></g><path fill="#FFC423" d="M921 1031v218h219v-218H921Z"/><path fill="#FFC423" fill-rule="evenodd" d="M704 112c-97.8.27-177 79.63-177 177.5V303h177V112ZM191 637c-.27-97.8-79.64-177-177.5-177H0v177h191Zm513-334c-97.8.27-177 79.63-177 177.5V494h177V303Z" clip-rule="evenodd"/><path fill="#009CDE" fill-rule="evenodd" d="M704-79c-97.8.27-177 79.64-177 177.5V112h177V-79Z" clip-rule="evenodd"/><path fill="#F46351" fill-rule="evenodd" d="M704 112c97.8.27 177 79.63 177 177.5V303H704V112ZM191 637c-.27 97.8-79.64 177-177.5 177H0V637h191Z" clip-rule="evenodd"/><path fill="#009CDE" fill-rule="evenodd" d="M704 303c97.8.27 177 79.63 177 177.5V494H704V303Z" clip-rule="evenodd"/><path fill="#CCBAF4" fill-rule="evenodd" d="M704-79c97.8.27 177 79.64 177 177.5V112H704V-79Z" clip-rule="evenodd"/><path fill="#FFC423" d="M1034-151h-10v645h10v-645Zm30 0h-10v645h10v-645Zm30 0h-10v645h10v-645Zm30 0h-10v645h10v-645Z"/><path fill="#CCEDF9" d="M229 348v-10h-645v10h645Zm0 30v-10h-645v10h645Zm0 30v-10h-645v10h645Zm0 30v-10h-645v10h645Zm660 253a12 12 0 1 0 0-24 12 12 0 0 0 0 24Zm48 0a12 12 0 1 0 0-24 12 12 0 0 0 0 24Zm48 0a12 12 0 1 0 0-24 12 12 0 0 0 0 24Zm-96 48a12 12 0 1 0 0-24 12 12 0 0 0 0 24Zm48 0a12 12 0 1 0 0-24 12 12 0 0 0 0 24Zm48 0a12 12 0 1 0 0-24 12 12 0 0 0 0 24Zm-96 48a12 12 0 1 0 0-24 12 12 0 0 0 0 24Zm48 0a12 12 0 1 0 0-24 12 12 0 0 0 0 24Zm48 0a12 12 0 1 0 0-24 12 12 0 0 0 0 24Z"/></g></g><defs><clipPath id="a"><path fill="#fff" d="M0 0h1140v1136H0z"/></clipPath></defs></svg>