<svg xmlns="http://www.w3.org/2000/svg" width="254" height="71" fill="none"><g fill="#009BDD" clip-path="url(#a)"><path d="M44.772 25.035a.608.608 0 0 0-.14-.174 3593.657 3593.657 0 0 0-11.707-13.098c-1.076-1.147-2.153-2.293-3.16-3.475-.244-.277-.453-.555-.696-.833a3.688 3.688 0 0 1-.312-.348h.034a16.545 16.545 0 0 1-2.779-4.62l-.174-.383c0-.035-.034-.035-.07-.07-.034 0-.103-.034-.138-.034h-.035c-.07 0-.104.035-.139.035l-.07.07-.173.381a18.377 18.377 0 0 1-2.78 4.621h.036s-.105.14-.313.348c-.243.278-.452.556-.695.833a149.95 149.95 0 0 1-3.161 3.475A3620.39 3620.39 0 0 0 6.558 24.86a.611.611 0 0 1-.14.174C-6.434 42.163 7.53 56.129 7.53 56.129h-.034a23.786 23.786 0 0 0 16.293 8.2c.556.07 1.146.104 1.771.104h.035c.59 0 1.181-.035 1.772-.104a23.716 23.716 0 0 0 16.293-8.2h-.035c.035 0 14-13.966 1.147-31.094ZM14.826 37.09l-.313.487-.035.034c-2.362 2.85-3.752 5.907-4.203 8.93-.07.381-.417.625-.764.555-.244-.035-.417-.208-.522-.417a17.366 17.366 0 0 1-1.25-4.551c-.764-5.524.903-10.353 4.446-14.488l4.274-4.899a.663.663 0 0 1 .938-.069l.069.07c1.146 1.32 2.64 3.022 4.308 4.968.208.243.208.625 0 .903-2.293 2.745-4.725 5.663-6.914 8.443l-.034.034Zm19.767 14.314c-1.32 3.474-3.926 5.56-7.608 6.15-5.246.799-10.144-2.78-10.943-8.026 0-.07 0-.104-.035-.174-.417-2.953.486-5.558 2.397-7.782 2.223-2.606 7.122-8.65 7.191-8.755.105.104 5.316 6.601 7.26 8.894 2.468 2.884 3.058 6.184 1.738 9.693Zm7.747-5.454c-.035.104-.104.243-.139.347a.666.666 0 0 1-.868.382c-.209-.104-.383-.278-.417-.52-.487-2.92-1.876-5.838-4.134-8.582l-.035-.035-.209-.313-.139-.173c-1.806-2.293-11.36-13.48-15.528-18.38-.209-.243-.209-.625 0-.903a262.784 262.784 0 0 0 4.134-4.62c.243-.279.66-.279.938-.035l.034.034a49.9 49.9 0 0 1 1.807 2.016c3.787 4.238 7.608 8.407 11.29 12.68 4.656 5.386 5.733 11.57 3.266 18.102Zm127.183-24.181h4.343v.868h-1.737v4.308h-.869v-4.273h-1.737v-.903Zm9.764 5.176-.382-3.752-.243 1.25-.904 2.502h-1.111l-.904-2.501-.243-1.251-.382 3.752h-.903l.521-5.176h.973l1.493 4.134 1.494-4.134h.973l.521 5.176h-.903ZM68.462 23.158h-9.728V48.59h9.728c7.017 0 12.715-5.698 12.715-12.716 0-7.018-5.698-12.716-12.715-12.716Zm6.01 18.726c-1.598 1.599-3.752 2.502-6.01 2.467h-5.49v-16.99h5.49c4.724.036 8.511 3.892 8.476 8.582a8.447 8.447 0 0 1-2.466 5.941Zm89.004 6.706h4.238V21.664h-4.238V48.59ZM88.333 31.288v-1.564h-4.238v18.9h4.238V36.951c0-2.05 1.702-2.988 3.3-2.988h2.64V29.69h-2.64c-1.25.034-2.466.625-3.3 1.598Zm22.616 8.2a6.485 6.485 0 0 1-1.286 4.03 4.43 4.43 0 0 1-3.578 1.632 4.527 4.527 0 0 1-3.126-1.146c-.904-.869-1.355-2.154-1.355-3.822v-10.11h-4.239v11.083a7.54 7.54 0 0 0 2.398 5.628 8.417 8.417 0 0 0 5.871 2.258c1.945.035 3.856-.66 5.28-2.015v1.598h4.238V30.072h-4.238v9.415h.035Zm17.787-9.903a8.91 8.91 0 0 0-5.871 2.19v-1.738h-4.239v26.995h4.239v-10.18a8.91 8.91 0 0 0 5.871 2.19c5.211 0 9.484-4.343 9.484-9.694 0-5.385-4.238-9.763-9.484-9.763Zm3.682 13.62c-.972 1.007-2.293 1.598-3.682 1.598a5.42 5.42 0 0 1-5.315-5.49 5.72 5.72 0 0 1 1.563-3.925c.973-1.043 2.327-1.599 3.752-1.599 2.883 0 5.246 2.467 5.246 5.524a5.58 5.58 0 0 1-1.564 3.892Zm23.137-11.43c-1.633-1.425-3.717-2.224-5.871-2.19-5.211 0-9.484 4.343-9.484 9.694 0 5.35 4.238 9.728 9.484 9.728a8.673 8.673 0 0 0 5.871-2.19v1.773h4.238V30.002h-4.238v1.772Zm-5.871 13.063c-2.918 0-5.28-2.467-5.28-5.525 0-3.022 2.362-5.489 5.28-5.489s5.281 2.467 5.281 5.49c0 3.022-2.397 5.523-5.281 5.523Z"/></g><path fill="#009BDD" d="M254 41.886c0 1.467-.36 2.748-1.082 3.842-.722 1.094-1.77 1.944-3.143 2.55-1.35.581-3.003.872-4.959.872a18.51 18.51 0 0 1-4.924-.663 15.576 15.576 0 0 1-2.13-.838v-4.924c1.187.512 2.409.989 3.667 1.431 1.28.42 2.549.629 3.806.629.861 0 1.548-.116 2.06-.35.536-.232.92-.546 1.153-.942.256-.396.384-.85.384-1.362 0-.629-.221-1.164-.664-1.606-.419-.443-.989-.85-1.711-1.223a48.07 48.07 0 0 0-2.479-1.257 37.694 37.694 0 0 1-1.886-.978 12.367 12.367 0 0 1-1.956-1.431 7.304 7.304 0 0 1-1.501-2.096c-.396-.815-.594-1.793-.594-2.933 0-1.49.338-2.76 1.013-3.807.698-1.07 1.676-1.886 2.933-2.444 1.281-.559 2.782-.838 4.505-.838a14.6 14.6 0 0 1 3.702.454 24.31 24.31 0 0 1 3.702 1.292l-1.712 4.12a29.253 29.253 0 0 0-3.073-1.082 10.24 10.24 0 0 0-2.793-.384c-.652 0-1.211.105-1.677.314-.465.21-.826.5-1.082.873-.233.373-.349.815-.349 1.327 0 .582.174 1.083.523 1.502.35.396.873.78 1.572 1.152a84.8 84.8 0 0 0 2.619 1.327c1.28.606 2.363 1.234 3.248 1.886.908.652 1.606 1.42 2.095 2.305.489.885.733 1.979.733 3.282Zm-37.098 6.916-6.007-19.556h-.139l.104 2.095c.047.932.094 1.933.14 3.004.047 1.047.07 2.002.07 2.863v11.594h-4.715V23.868h7.194l5.902 19.067h.105l6.251-19.067h7.194v24.934h-4.924V37c0-.792.011-1.7.035-2.724.046-1.024.081-1.99.105-2.899l.104-2.095h-.139l-6.426 19.521h-4.854Zm-22.203-20.884c-1.001 0-1.898.198-2.689.593a5.494 5.494 0 0 0-1.956 1.712c-.535.721-.943 1.606-1.222 2.654-.256 1.047-.384 2.223-.384 3.527 0 1.77.209 3.282.628 4.54.443 1.233 1.13 2.176 2.061 2.828.931.652 2.118.978 3.562.978a13.37 13.37 0 0 0 3.038-.35 30.1 30.1 0 0 0 3.318-.977v4.435a17.79 17.79 0 0 1-3.248.978c-1.071.21-2.27.314-3.597.314-2.561 0-4.68-.524-6.356-1.571-1.653-1.071-2.875-2.561-3.667-4.47-.791-1.933-1.187-4.18-1.187-6.74 0-1.886.256-3.609.768-5.169.512-1.583 1.257-2.945 2.235-4.085a10.258 10.258 0 0 1 3.667-2.654c1.467-.63 3.143-.943 5.029-.943 1.234 0 2.468.162 3.702.488 1.257.303 2.456.722 3.596 1.258l-1.711 4.295a26.71 26.71 0 0 0-2.828-1.152 8.319 8.319 0 0 0-2.759-.49Z"/><defs><clipPath id="a"><path fill="#fff" d="M1 2h179.155v68.948H1z"/></clipPath></defs></svg>