<svg xmlns="http://www.w3.org/2000/svg" width="20" height="20" fill="none"><path fill="#36393F" d="M10 .25A9.75 9.75 0 1 0 19.75 10 9.761 9.761 0 0 0 10 .25Zm8.214 9H14.48c-.168-3.423-1.486-5.843-2.567-7.275a8.268 8.268 0 0 1 6.302 7.275Zm-11.192 1.5h5.956c-.216 3.9-2.084 6.292-2.978 7.219-.895-.928-2.762-3.319-2.978-7.219Zm0-1.5C7.238 5.35 9.106 2.958 10 2.031c.895.931 2.762 3.322 2.978 7.219H7.022Zm1.065-7.275C7.006 3.407 5.687 5.827 5.52 9.25H1.785a8.268 8.268 0 0 1 6.302-7.275ZM1.785 10.75H5.52c.17 3.423 1.486 5.843 2.567 7.275a8.267 8.267 0 0 1-6.302-7.275Zm10.125 7.275c1.08-1.432 2.396-3.852 2.567-7.275h3.735a8.269 8.269 0 0 1-6.299 7.275h-.003Z"/></svg>